<svg width="100" height="100" viewBox="0 0 100 100" fill="none" xmlns="http://www.w3.org/2000/svg">
<path d="M42.1978 3.5902C46.4921 5.5357 53.518 5.5357 57.8022 3.5902L64.062 0.747546C68.3563 -1.19796 73.2251 0.808027 74.8782 5.22321L77.2975 11.6645C78.9507 16.0797 83.9203 21.0493 88.3355 22.7025L94.7768 25.1218C99.192 26.7749 101.208 31.6437 99.2524 35.938L96.4098 42.1978C94.4643 46.4921 94.4643 53.518 96.4098 57.8022L99.2524 64.062C101.198 68.3563 99.192 73.2251 94.7768 74.8782L88.3355 77.2975C83.9203 78.9507 78.9507 83.9203 77.2975 88.3355L74.8782 94.7768C73.2251 99.192 68.3563 101.208 64.062 99.2524L57.8022 96.4098C53.508 94.4643 46.482 94.4643 42.1978 96.4098L35.938 99.2524C31.6437 101.198 26.7749 99.192 25.1218 94.7768L22.7025 88.3355C21.0493 83.9203 16.0797 78.9507 11.6645 77.2975L5.22321 74.8782C0.808027 73.2251 -1.20804 68.3563 0.747546 64.062L3.5902 57.8022C5.5357 53.508 5.5357 46.482 3.5902 42.1978L0.747546 35.938C-1.19796 31.6437 0.808027 26.7749 5.22321 25.1218L11.6645 22.7025C16.0797 21.0493 21.0493 16.0797 22.7025 11.6645L25.1218 5.22321C26.7749 0.808027 31.6437 -1.20804 35.938 0.747546L42.1978 3.5902Z" fill="#E0CCFC"/>
<g clip-path="url(#clip0_21_2347)">
<path d="M69.3854 71.5703C70.0187 71.5703 70.5386 71.0461 70.5386 70.3894V70.1001C70.5386 60.7731 59.9264 49.8976 50.826 49.8976C59.9264 49.8976 70.5386 39.0221 70.5386 29.6951H70.5326V29.4059C70.5326 28.7551 70.0247 28.2249 69.3794 28.2249H31.4604C30.815 28.2249 30.3071 28.7491 30.3071 29.4059V30.2614C31.0301 33.7139 31.538 41.2092 31.538 49.8976C31.538 58.586 31.0361 66.0753 30.3071 69.5338V70.3171C30.3071 70.9678 30.815 71.498 31.4604 71.498L69.3913 71.5703H69.3854Z" fill="url(#paint0_linear_21_2347)"/>
<path d="M47.9905 36.0884C47.6757 35.3561 47.2199 34.7202 46.6472 34.1988C46.0835 33.6775 45.3969 33.2707 44.6053 32.9844C43.8228 32.7041 42.9532 32.5594 42.0208 32.5594C41.0883 32.5594 40.2097 32.7011 39.4272 32.9844C38.6416 33.2707 37.955 33.6775 37.3823 34.2049C36.8126 34.7262 36.3629 35.3621 36.048 36.0944C35.7332 36.8237 35.5713 37.6343 35.5713 38.5053C35.5713 39.3762 35.7332 40.1989 36.048 40.9342C36.3629 41.6726 36.8126 42.3084 37.3823 42.8418C37.952 43.3692 38.6416 43.7881 39.4242 44.0804C40.2097 44.3667 41.0823 44.5144 42.0208 44.5144C42.9592 44.5144 43.8258 44.3727 44.6083 44.0865C45.3999 43.7911 46.0895 43.3752 46.6532 42.8449C47.2259 42.3145 47.6757 41.6756 47.9905 40.9372C48.3053 40.1989 48.4672 39.3822 48.4672 38.5083C48.4672 37.6343 48.3053 36.8297 47.9905 36.0974H47.9875L47.9905 36.0884Z" fill="white"/>
<path d="M46.5637 37.1599C46.3853 36.7449 46.127 36.3846 45.8025 36.0892C45.4831 35.7937 45.094 35.5632 44.6454 35.401C44.202 35.2422 43.7092 35.1602 43.1808 35.1602C42.6524 35.1602 42.1546 35.2404 41.7111 35.401C41.266 35.5632 40.8769 35.7937 40.5524 36.0926C40.2295 36.388 39.9747 36.7484 39.7963 37.1633C39.6179 37.5766 39.5261 38.036 39.5261 38.5295C39.5261 39.023 39.6179 39.4892 39.7963 39.9059C39.9747 40.3243 40.2295 40.6846 40.5524 40.9869C40.8752 41.2857 41.266 41.5231 41.7094 41.6887C42.1546 41.851 42.649 41.9347 43.1808 41.9347C43.7126 41.9347 44.2037 41.8544 44.6471 41.6922C45.0957 41.5248 45.4865 41.2891 45.8059 40.9886C46.1304 40.688 46.3853 40.326 46.5637 39.9076C46.7421 39.4892 46.8338 39.0264 46.8338 38.5312C46.8338 38.036 46.7421 37.58 46.5637 37.165H46.562L46.5637 37.1599Z" fill="#222222"/>
</g>
<defs>
<linearGradient id="paint0_linear_21_2347" x1="56.3592" y1="28.5081" x2="44.495" y2="72.1473" gradientUnits="userSpaceOnUse">
<stop stop-color="#CD65FD"/>
<stop offset="0.31" stop-color="#A53EF5"/>
<stop offset="1" stop-color="#6B0AE5"/>
</linearGradient>
<clipPath id="clip0_21_2347">
<rect width="40.3213" height="43.3454" fill="white" transform="translate(30.241 28.2249)"/>
</clipPath>
</defs>
</svg>
