<svg width="281" height="90" viewBox="0 0 281 90" fill="none" xmlns="http://www.w3.org/2000/svg">
<path d="M4.08974 0H0.5V89.7436H4.08974V0Z" fill="#0A0A0A"/>
<path d="M7.68003 4.66426e-05H5.88516V89.7437H7.68003V4.66426e-05Z" fill="#0A0A0A"/>
<path d="M16.6538 0.000275191H11.2692V89.7439H16.6538V0.000275191Z" fill="#0A0A0A"/>
<path d="M22.0384 0.000275191H20.2436V89.7439H22.0384V0.000275191Z" fill="#0A0A0A"/>
<path d="M27.4226 4.66426e-05H23.8329V89.7437H27.4226V4.66426e-05Z" fill="#0A0A0A"/>
<path d="M36.3974 0.000275191H31.0128V89.7439H36.3974V0.000275191Z" fill="#0A0A0A"/>
<path d="M41.782 0.000275191H39.9871V89.7439H41.782V0.000275191Z" fill="#0A0A0A"/>
<path d="M48.9619 4.66426e-05H47.167V89.7437H48.9619V4.66426e-05Z" fill="#0A0A0A"/>
<path d="M54.3461 0.000275191H50.7563V89.7439H54.3461V0.000275191Z" fill="#0A0A0A"/>
<path d="M65.1153 0.000275191H59.7307V89.7439H65.1153V0.000275191Z" fill="#0A0A0A"/>
<path d="M72.2948 0.000275191H70.4999V89.7439H72.2948V0.000275191Z" fill="#0A0A0A"/>
<path d="M77.6789 4.66426e-05H74.0892V89.7437H77.6789V4.66426e-05Z" fill="#0A0A0A"/>
<path d="M83.064 0.000275191H79.4742V89.7439H83.064V0.000275191Z" fill="#0A0A0A"/>
<path d="M92.0383 0.000275191H90.2435V89.7439H92.0383V0.000275191Z" fill="#0A0A0A"/>
<path d="M95.6277 4.66426e-05H93.8328V89.7437H95.6277V4.66426e-05Z" fill="#0A0A0A"/>
<path d="M102.808 0.000275191H99.2178V89.7439H102.808V0.000275191Z" fill="#0A0A0A"/>
<path d="M111.781 4.66426e-05H104.602V89.7437H111.781V4.66426e-05Z" fill="#0A0A0A"/>
<path d="M117.166 4.66426e-05H113.576V89.7437H117.166V4.66426e-05Z" fill="#0A0A0A"/>
<path d="M120.756 0.000275191H118.961V89.7439H120.756V0.000275191Z" fill="#0A0A0A"/>
<path d="M126.141 0.000275191H122.551V89.7439H126.141V0.000275191Z" fill="#0A0A0A"/>
<path d="M135.115 0.000275191H129.731V89.7439H135.115V0.000275191Z" fill="#0A0A0A"/>
<path d="M140.5 0.000275191H138.705V89.7439H140.5V0.000275191Z" fill="#0A0A0A"/>
<path d="M147.68 4.66426e-05H145.885V89.7437H147.68V4.66426e-05Z" fill="#0A0A0A"/>
<path d="M153.064 0.000275191H149.474V89.7439H153.064V0.000275191Z" fill="#0A0A0A"/>
<path d="M163.833 0.000275191H158.448V89.7439H163.833V0.000275191Z" fill="#0A0A0A"/>
<path d="M171.013 0.000275191H169.218V89.7439H171.013V0.000275191Z" fill="#0A0A0A"/>
<path d="M176.397 0.000275191H172.807V89.7439H176.397V0.000275191Z" fill="#0A0A0A"/>
<path d="M181.782 0.000275191H178.192V89.7439H181.782V0.000275191Z" fill="#0A0A0A"/>
<path d="M190.756 0.000275191H188.961V89.7439H190.756V0.000275191Z" fill="#0A0A0A"/>
<path d="M194.346 0.000275191H192.551V89.7439H194.346V0.000275191Z" fill="#0A0A0A"/>
<path d="M201.526 4.66426e-05H197.936V89.7437H201.526V4.66426e-05Z" fill="#0A0A0A"/>
<path d="M210.499 4.66426e-05H203.32V89.7437H210.499V4.66426e-05Z" fill="#0A0A0A"/>
<path d="M215.884 0.000275191H212.295V89.7439H215.884V0.000275191Z" fill="#0A0A0A"/>
<path d="M219.474 4.66426e-05H217.68V89.7437H219.474V4.66426e-05Z" fill="#0A0A0A"/>
<path d="M224.859 0.000275191H221.269V89.7439H224.859V0.000275191Z" fill="#0A0A0A"/>
<path d="M233.833 0.000275191H228.448V89.7439H233.833V0.000275191Z" fill="#0A0A0A"/>
<path d="M241.013 4.66426e-05H237.423V89.7437H241.013V4.66426e-05Z" fill="#0A0A0A"/>
<path d="M248.191 4.66426e-05H244.602V89.7437H248.191V4.66426e-05Z" fill="#0A0A0A"/>
<path d="M255.371 0.000275191H251.782V89.7439H255.371V0.000275191Z" fill="#0A0A0A"/>
<path d="M260.756 4.66426e-05H257.167V89.7437H260.756V4.66426e-05Z" fill="#0A0A0A"/>
<path d="M271.526 4.66426e-05H266.141V89.7437H271.526V4.66426e-05Z" fill="#0A0A0A"/>
<path d="M275.115 4.66426e-05H273.32V89.7437H275.115V4.66426e-05Z" fill="#0A0A0A"/>
<path d="M280.5 4.66426e-05H276.91V89.7437H280.5V4.66426e-05Z" fill="#0A0A0A"/>
</svg>
