<svg width="239" height="297" viewBox="0 0 239 297" fill="none" xmlns="http://www.w3.org/2000/svg">
<path d="M233.346 54.1762C248.357 99.7445 209.115 153.619 145.698 174.509C82.2813 195.399 18.7034 175.393 3.69304 129.825C-11.3173 84.2566 27.924 30.3818 91.341 9.49197C154.758 -11.3978 218.336 8.60801 233.346 54.1762Z" fill="#F8F7FF"/>
<path fill-rule="evenodd" clip-rule="evenodd" d="M192.02 249.986L47.8008 174.006L49.1991 171.352L193.419 247.332L192.02 249.986Z" fill="#3D008F"/>
<path fill-rule="evenodd" clip-rule="evenodd" d="M212.646 235.337L233.013 82.481L235.987 82.8773L215.62 235.733L212.646 235.337Z" fill="#3D008F"/>
<mask id="mask0_10136_265" style="mask-type:alpha" maskUnits="userSpaceOnUse" x="0" y="1" width="237" height="182">
<path d="M233.346 54.1762C248.357 99.7444 209.115 153.619 145.698 174.509C82.2813 195.399 18.7034 175.393 3.69304 129.825C-11.3173 84.2565 27.924 30.3817 91.341 9.49188C154.758 -11.3979 218.336 8.60792 233.346 54.1762Z" fill="#F8F7FF"/>
</mask>
<g mask="url(#mask0_10136_265)">
<path d="M105.525 58.7992C111.006 49.3058 124.708 49.3058 130.189 58.7992L160.785 111.793C166.266 121.286 159.415 133.153 148.453 133.153H87.2612C76.2993 133.153 69.4481 121.286 74.929 111.793L105.525 58.7992Z" fill="#F8F7FF"/>
<path fill-rule="evenodd" clip-rule="evenodd" d="M158.407 113.408L127.811 60.4148C123.485 52.9214 112.669 52.9214 108.343 60.4148L77.7468 113.408C73.4206 120.901 78.8284 130.268 87.481 130.268H148.672C157.325 130.268 162.733 120.901 158.407 113.408ZM130.409 58.9148C124.928 49.4214 111.225 49.4214 105.745 58.9148L75.1488 111.908C69.6678 121.401 76.519 133.268 87.481 133.268H148.672C159.634 133.268 166.486 121.401 161.005 111.908L130.409 58.9148Z" fill="#3D008F"/>
<path fill-rule="evenodd" clip-rule="evenodd" d="M118.28 77.5636C119.385 77.5636 120.28 78.459 120.28 79.5636V104.564C120.28 105.668 119.385 106.564 118.28 106.564C117.176 106.564 116.28 105.668 116.28 104.564V79.5636C116.28 78.459 117.176 77.5636 118.28 77.5636Z" fill="#3D008F"/>
<circle cx="118.5" cy="113.179" r="2.5" fill="#3D008F"/>
</g>
<path fill-rule="evenodd" clip-rule="evenodd" d="M216.508 121.831C231.963 100.612 237.623 76.7475 230.497 55.1148C223.371 33.4822 204.636 17.6532 179.596 9.77402C154.561 1.89656 123.459 2.07078 92.2796 12.3414C61.1003 22.612 35.9833 40.9566 20.5317 62.1703C5.07665 83.3887 -0.583439 107.254 6.54243 128.886C13.6683 150.519 32.4037 166.348 57.4436 174.227C82.478 182.105 113.58 181.93 144.76 171.66C175.939 161.389 201.056 143.044 216.508 121.831ZM145.698 174.509C209.115 153.619 248.357 99.7445 233.346 54.1762C218.336 8.60801 154.758 -11.3978 91.341 9.49198C27.924 30.3818 -11.3173 84.2566 3.69304 129.825C18.7034 175.393 82.2813 195.399 145.698 174.509Z" fill="#3D008F"/>
<path fill-rule="evenodd" clip-rule="evenodd" d="M190.166 250.777C188.946 248.612 189.712 245.868 191.877 244.648L211.042 233.845C213.207 232.625 215.952 233.391 217.172 235.556L220.186 240.905C220.601 241.639 220.8 242.476 220.762 243.318L220.392 251.453L237.858 282.44C239.078 284.605 238.312 287.349 236.147 288.57L225.693 294.462C223.528 295.682 220.784 294.916 219.563 292.751L202.098 261.764L194.948 257.868C194.207 257.464 193.595 256.861 193.181 256.126L190.166 250.777ZM193.35 247.261C192.628 247.668 192.373 248.583 192.78 249.304L195.794 254.653C195.932 254.898 196.136 255.099 196.383 255.234L203.66 259.199C204.071 259.423 204.411 259.758 204.641 260.166L222.177 291.278C222.584 292 223.498 292.255 224.22 291.848L234.674 285.956C235.396 285.55 235.651 284.635 235.244 283.913L217.709 252.801C217.479 252.393 217.368 251.929 217.389 251.46L217.765 243.182C217.777 242.901 217.711 242.623 217.573 242.378L214.558 237.029C214.152 236.307 213.237 236.052 212.515 236.459L193.35 247.261Z" fill="#3D008F"/>
<path fill-rule="evenodd" clip-rule="evenodd" d="M201.887 261.39C201.48 260.668 201.735 259.753 202.457 259.346L218.138 250.508C218.86 250.102 219.774 250.357 220.181 251.079C220.588 251.8 220.333 252.715 219.611 253.122L203.93 261.96C203.208 262.367 202.294 262.111 201.887 261.39Z" fill="#3D008F"/>
<path fill-rule="evenodd" clip-rule="evenodd" d="M194.474 256.384C194.068 255.663 194.323 254.748 195.045 254.341L217.695 241.575C218.416 241.168 219.331 241.424 219.738 242.145C220.145 242.867 219.889 243.782 219.168 244.188L196.518 256.955C195.796 257.361 194.881 257.106 194.474 256.384Z" fill="#3D008F"/>
<path fill-rule="evenodd" clip-rule="evenodd" d="M215.944 264.946C216.666 264.539 217.581 264.794 217.988 265.516L221.916 272.485C222.323 273.207 222.067 274.122 221.346 274.528C220.624 274.935 219.709 274.68 219.302 273.958L215.374 266.989C214.967 266.267 215.223 265.352 215.944 264.946Z" fill="#3D008F"/>
</svg>
