<svg width="100" height="100" viewBox="0 0 100 100" fill="none" xmlns="http://www.w3.org/2000/svg">
<circle cx="50" cy="50" r="50" fill="#E0CCFC"/>
<circle cx="50" cy="49.6001" r="35" fill="#6500EE"/>
<path d="M38.8167 37.0834C38.1724 36.439 37.1276 36.439 36.4833 37.0834C35.8389 37.7277 35.8389 38.7725 36.4833 39.4168L47.6915 50.6251L36.8381 61.4786C36.1937 62.1229 36.1937 63.1676 36.8381 63.812C37.4825 64.4564 38.5272 64.4564 39.1715 63.812L50.025 52.9585L60.8785 63.812C61.5228 64.4564 62.5675 64.4564 63.2119 63.812C63.8563 63.1676 63.8563 62.1229 63.2119 61.4786L52.3585 50.6251L63.5667 39.4168C64.2111 38.7725 64.2111 37.7277 63.5667 37.0834C62.9224 36.439 61.8776 36.439 61.2333 37.0834L50.025 48.2916L38.8167 37.0834Z" fill="white"/>
</svg>
