<svg width="32" height="32" viewBox="0 0 32 32" fill="none" xmlns="http://www.w3.org/2000/svg">
<g clip-path="url(#clip0_1527_14276)">
<path d="M13.5033 1.14886C14.8775 1.77142 17.1258 1.77142 18.4967 1.14886L20.4999 0.239215C21.874 -0.383346 23.432 0.258569 23.961 1.67143L24.7352 3.73265C25.2642 5.14551 26.8545 6.73578 28.2673 7.2648L30.3286 8.03897C31.7414 8.56798 32.3866 10.126 31.7608 11.5001L30.8511 13.5033C30.2286 14.8775 30.2286 17.1258 30.8511 18.4967L31.7608 20.4999C32.3833 21.874 31.7414 23.432 30.3286 23.961L28.2673 24.7352C26.8545 25.2642 25.2642 26.8545 24.7352 28.2673L23.961 30.3286C23.432 31.7414 21.874 32.3866 20.4999 31.7608L18.4967 30.8511C17.1225 30.2286 14.8742 30.2286 13.5033 30.8511L11.5001 31.7608C10.126 32.3833 8.56798 31.7414 8.03897 30.3286L7.2648 28.2673C6.73578 26.8545 5.14551 25.2642 3.73265 24.7352L1.67143 23.961C0.258569 23.432 -0.386572 21.874 0.239215 20.4999L1.14886 18.4967C1.77142 17.1225 1.77142 14.8742 1.14886 13.5033L0.239215 11.5001C-0.383346 10.126 0.258569 8.56798 1.67143 8.03897L3.73265 7.2648C5.14551 6.73578 6.73578 5.14551 7.2648 3.73265L8.03897 1.67143C8.56798 0.258569 10.126 -0.386572 11.5001 0.239215L13.5033 1.14886Z" fill="#E0CCFC"/>
<g clip-path="url(#clip1_1527_14276)">
<path d="M22.2043 22.9027C22.4069 22.9027 22.5733 22.735 22.5733 22.5248V22.4323C22.5733 19.4477 19.1774 15.9675 16.2653 15.9675C19.1774 15.9675 22.5733 12.4873 22.5733 9.50268H22.5714V9.41013C22.5714 9.2019 22.4088 9.03223 22.2023 9.03223H10.0683C9.86175 9.03223 9.69922 9.19997 9.69922 9.41013V9.68391C9.93058 10.7887 10.0931 13.1872 10.0931 15.9675C10.0931 18.7478 9.9325 21.1444 9.69922 22.2511V22.5017C9.69922 22.7099 9.86175 22.8796 10.0683 22.8796L22.2062 22.9027H22.2043Z" fill="url(#paint0_linear_1527_14276)"/>
<path d="M15.357 11.5482C15.2562 11.3139 15.1104 11.1104 14.9271 10.9436C14.7467 10.7767 14.527 10.6465 14.2737 10.5549C14.0233 10.4652 13.745 10.4189 13.4466 10.4189C13.1482 10.4189 12.8671 10.4643 12.6167 10.5549C12.3653 10.6465 12.1456 10.7767 11.9623 10.9455C11.78 11.1123 11.6361 11.3158 11.5354 11.5501C11.4346 11.7835 11.3828 12.0429 11.3828 12.3216C11.3828 12.6003 11.4346 12.8636 11.5354 13.0989C11.6361 13.3351 11.78 13.5386 11.9623 13.7093C12.1446 13.8781 12.3653 14.0121 12.6157 14.1057C12.8671 14.1973 13.1463 14.2445 13.4466 14.2445C13.747 14.2445 14.0242 14.1992 14.2747 14.1076C14.528 14.0131 14.7486 13.88 14.929 13.7103C15.1123 13.5405 15.2562 13.3361 15.357 13.0998C15.4577 12.8636 15.5095 12.6022 15.5095 12.3226C15.5095 12.0429 15.4577 11.7854 15.357 11.5511H15.356L15.357 11.5482Z" fill="white"/>
<path d="M14.9005 11.8919C14.8434 11.7591 14.7607 11.6438 14.6569 11.5492C14.5547 11.4547 14.4301 11.3809 14.2866 11.329C14.1447 11.2782 13.987 11.252 13.8179 11.252C13.6488 11.252 13.4895 11.2776 13.3476 11.329C13.2052 11.3809 13.0807 11.4547 12.9768 11.5503C12.8735 11.6449 12.792 11.7602 12.7349 11.893C12.6778 12.0252 12.6484 12.1722 12.6484 12.3301C12.6484 12.4881 12.6778 12.6372 12.7349 12.7706C12.792 12.9045 12.8735 13.0198 12.9768 13.1165C13.0801 13.2121 13.2052 13.2881 13.3471 13.3411C13.4895 13.393 13.6478 13.4198 13.8179 13.4198C13.9881 13.4198 14.1452 13.3941 14.2872 13.3422C14.4307 13.2886 14.5557 13.2132 14.658 13.117C14.7618 13.0209 14.8434 12.905 14.9005 12.7711C14.9575 12.6372 14.9869 12.4892 14.9869 12.3307C14.9869 12.1722 14.9575 12.0263 14.9005 11.8935H14.8999L14.9005 11.8919Z" fill="#222222"/>
</g>
</g>
<defs>
<linearGradient id="paint0_linear_1527_14276" x1="18.0359" y1="9.12285" x2="14.2393" y2="23.0874" gradientUnits="userSpaceOnUse">
<stop stop-color="#CD65FD"/>
<stop offset="0.31" stop-color="#A53EF5"/>
<stop offset="1" stop-color="#6B0AE5"/>
</linearGradient>
<clipPath id="clip0_1527_14276">
<rect width="32" height="32" fill="white"/>
</clipPath>
<clipPath id="clip1_1527_14276">
<rect width="12.9028" height="13.8705" fill="white" transform="translate(9.67773 9.03223)"/>
</clipPath>
</defs>
</svg>
