<svg width="16" height="16" viewBox="0 0 16 16" fill="none" xmlns="http://www.w3.org/2000/svg">
<g clip-path="url(#clip0_1270_5837)">
<path d="M6.75165 0.574431C7.43873 0.885712 8.56289 0.885712 9.24835 0.574431L10.2499 0.119607C10.937 -0.191673 11.716 0.129284 11.9805 0.835713L12.3676 1.86633C12.6321 2.57275 13.4272 3.36789 14.1337 3.6324L15.1643 4.01948C15.8707 4.28399 16.1933 5.063 15.8804 5.75007L15.4256 6.75165C15.1143 7.43873 15.1143 8.56289 15.4256 9.24835L15.8804 10.2499C16.1917 10.937 15.8707 11.716 15.1643 11.9805L14.1337 12.3676C13.4272 12.6321 12.6321 13.4272 12.3676 14.1337L11.9805 15.1643C11.716 15.8707 10.937 16.1933 10.2499 15.8804L9.24835 15.4256C8.56127 15.1143 7.43711 15.1143 6.75165 15.4256L5.75007 15.8804C5.063 16.1917 4.28399 15.8707 4.01948 15.1643L3.6324 14.1337C3.36789 13.4272 2.57275 12.6321 1.86633 12.3676L0.835713 11.9805C0.129284 11.716 -0.193286 10.937 0.119607 10.2499L0.574431 9.24835C0.885712 8.56127 0.885712 7.43711 0.574431 6.75165L0.119607 5.75007C-0.191673 5.063 0.129284 4.28399 0.835713 4.01948L1.86633 3.6324C2.57275 3.36789 3.36789 2.57275 3.6324 1.86633L4.01948 0.835713C4.28399 0.129284 5.063 -0.193286 5.75007 0.119607L6.75165 0.574431Z" fill="#E0CCFC"/>
<g clip-path="url(#clip1_1270_5837)">
<path d="M11.1002 11.4509C11.2015 11.4509 11.2847 11.367 11.2847 11.2619V11.2157C11.2847 9.72334 9.58674 7.98326 8.13068 7.98326C9.58674 7.98326 11.2847 6.24317 11.2847 4.75085H11.2837V4.70458C11.2837 4.60046 11.2025 4.51562 11.0992 4.51562H5.03217C4.92892 4.51562 4.84766 4.5995 4.84766 4.70458V4.84147C4.96334 5.39386 5.0446 6.59312 5.0446 7.98326C5.0446 9.37339 4.96429 10.5717 4.84766 11.125V11.2504C4.84766 11.3545 4.92892 11.4393 5.03217 11.4393L11.1011 11.4509H11.1002Z" fill="url(#paint0_linear_1270_5837)"/>
<path d="M7.67848 5.77361C7.6281 5.65644 7.55518 5.5547 7.46356 5.47129C7.37336 5.38787 7.2635 5.32278 7.13685 5.27697C7.01164 5.23213 6.87252 5.20898 6.72332 5.20898C6.57412 5.20898 6.43356 5.23165 6.30835 5.27697C6.18266 5.32278 6.0728 5.38787 5.98117 5.47225C5.89002 5.55567 5.81806 5.65741 5.76768 5.77458C5.71731 5.89126 5.69141 6.02097 5.69141 6.16032C5.69141 6.29966 5.71731 6.4313 5.76768 6.54895C5.81806 6.66708 5.89002 6.76882 5.98117 6.85417C6.07232 6.93855 6.18266 7.00557 6.30787 7.05234C6.43356 7.09815 6.57316 7.12177 6.72332 7.12177C6.87348 7.12177 7.01212 7.09911 7.13733 7.0533C7.26398 7.00605 7.37432 6.93951 7.46451 6.85465C7.55614 6.76979 7.6281 6.66756 7.67848 6.54943C7.72885 6.4313 7.75476 6.30063 7.75476 6.1608C7.75476 6.02097 7.72885 5.89223 7.67848 5.77506H7.678L7.67848 5.77361Z" fill="white"/>
<path d="M7.45023 5.94496C7.42168 5.87856 7.38036 5.82091 7.32844 5.77364C7.27733 5.72637 7.21507 5.68948 7.14331 5.66353C7.07235 5.63812 6.99352 5.625 6.90897 5.625C6.82442 5.625 6.74477 5.63784 6.67382 5.66353C6.60259 5.68948 6.54034 5.72637 6.48842 5.77419C6.43677 5.82145 6.39599 5.87911 6.36744 5.9455C6.3389 6.01162 6.32422 6.08512 6.32422 6.16409C6.32422 6.24305 6.3389 6.31764 6.36744 6.38431C6.39599 6.45126 6.43677 6.50891 6.48842 6.55727C6.54007 6.60509 6.60259 6.64307 6.67355 6.66957C6.74477 6.69553 6.82388 6.70891 6.90897 6.70891C6.99406 6.70891 7.07262 6.69607 7.14358 6.67012C7.21535 6.64334 7.27787 6.60563 7.32898 6.55754C7.3809 6.50945 7.42168 6.45153 7.45023 6.38459C7.47877 6.31764 7.49345 6.2436 7.49345 6.16436C7.49345 6.08512 7.47877 6.01217 7.45023 5.94578H7.44995L7.45023 5.94496Z" fill="#222222"/>
</g>
</g>
<defs>
<linearGradient id="paint0_linear_1270_5837" x1="9.01598" y1="4.56093" x2="7.11771" y2="11.5432" gradientUnits="userSpaceOnUse">
<stop stop-color="#CD65FD"/>
<stop offset="0.31" stop-color="#A53EF5"/>
<stop offset="1" stop-color="#6B0AE5"/>
</linearGradient>
<clipPath id="clip0_1270_5837">
<rect width="16" height="16" fill="white"/>
</clipPath>
<clipPath id="clip1_1270_5837">
<rect width="6.45141" height="6.93526" fill="white" transform="translate(4.83789 4.51562)"/>
</clipPath>
</defs>
</svg>
