<svg width="28" height="28" viewBox="0 0 28 28" fill="none" xmlns="http://www.w3.org/2000/svg">
<path d="M27.548 17.1052C29.2899 9.59578 24.6145 2.09607 17.1051 0.354102C9.59573 -1.38786 2.09602 3.28756 0.354059 10.797C-1.38791 18.3064 3.28752 25.8061 10.7969 27.548C18.3063 29.29 25.806 24.6146 27.548 17.1052Z" fill="#ED6A95"/>
<path d="M13.9511 4.37914C20.0551 4.37914 25.0671 9.05164 25.6061 15.0156C25.6376 14.6656 25.6551 14.3086 25.6551 13.9481C25.6551 7.48364 20.4156 2.24414 13.9511 2.24414C7.48657 2.24414 2.24707 7.48364 2.24707 13.9481C2.24707 14.3086 2.26457 14.6621 2.29607 15.0156C2.83507 9.05164 7.84707 4.37914 13.9511 4.37914Z" fill="#C02A5C"/>
<path d="M13.951 2.47812C20.2755 2.47812 25.4205 7.62312 25.4205 13.9476C25.4205 20.2721 20.2755 25.4171 13.951 25.4171C7.6265 25.4171 2.4815 20.2721 2.4815 13.9476C2.4815 7.62312 7.6265 2.47812 13.951 2.47812ZM13.951 -0.010376C6.2405 -0.010376 -0.010498 6.23712 -0.010498 13.9476C-0.010498 21.6581 6.2405 27.9056 13.9475 27.9056C21.6545 27.9056 27.9055 21.6546 27.9055 13.9476C27.9055 6.24062 21.6615 -0.010376 13.951 -0.010376Z" fill="#F5ABC4"/>
<path d="M22.96 12.0815V16.9591H21.9916V14.9182H19.7622V16.9591H18.7968V12.0815H19.7622V14.1451H21.9916V12.0815H22.96ZM12.1995 12.0815H11.7871L9.69051 16.9591H10.7039L12.1755 13.4362H12.2244L13.6821 16.9591H14.7084L12.6118 12.0815H12.1995ZM14.5596 15.8908L14.5696 15.9155C14.6385 16.0932 15.0399 17.0263 16.3587 17.0766C18.4733 17.1566 18.4354 15.8069 18.4354 15.5294C18.4211 15.3058 18.3472 15.09 18.2211 14.9038C18.095 14.7177 17.9212 14.568 17.7175 14.47C16.9248 14.0553 15.575 14.1056 15.575 13.3059C15.575 13.061 15.7956 12.7134 16.4496 12.7055C17.0836 12.6937 17.415 13.1005 17.4599 13.3315L18.1828 13.1212C18.055 12.8418 17.7834 12.0608 16.4156 12.0608C16.1725 12.0549 15.9301 12.0883 15.6978 12.1595C14.8492 12.4439 14.6994 13.0916 14.6994 13.4145C14.7104 15.2826 17.5159 14.7968 17.4839 15.7624C17.4729 16.1159 17.1225 16.3963 16.4186 16.3657C15.6888 16.3361 15.4392 15.8928 15.3204 15.6341L14.5596 15.8908ZM7.56595 12.7865C8.19993 12.7737 8.57632 13.0985 8.64521 13.3147L9.41895 13.1054C9.29016 12.8299 8.84588 12.0973 7.59291 12.04C5.21875 12.04 5.04004 14.2429 5.04004 14.466C5.04004 16.7854 6.78222 17.0431 7.46012 17.0737C8.1259 17.0967 8.79235 17.055 9.4499 16.9493V14.1451H7.00087V14.9202H8.53039C8.5342 14.9202 8.53786 14.9216 8.54064 14.9242C8.54342 14.9268 8.54511 14.9303 8.54537 14.934V16.2936C8.54497 16.2977 8.54346 16.3016 8.541 16.3049C8.53854 16.3082 8.53522 16.3108 8.53139 16.3124C8.22568 16.3627 7.91552 16.3815 7.60589 16.3687C7.39123 16.3618 6.04741 16.3085 6.04741 14.5677C6.04741 13.448 6.61249 12.7964 7.56595 12.7904" fill="#C02A5C"/>
<path d="M22.96 11.5214V16.3991H21.9916V14.3582H19.7622V16.3991H18.7968V11.5214H19.7622V13.5851H21.9916V11.5214H22.96ZM12.1995 11.5214H11.7871L9.69051 16.3991H10.7039L12.1755 12.8761H12.2244L13.6821 16.3991H14.7084L12.6118 11.5214H12.1995ZM14.5596 15.3307L14.5696 15.3554C14.6385 15.5331 15.0399 16.4662 16.3587 16.5166C18.4733 16.5965 18.4354 15.2468 18.4354 14.9694C18.4211 14.7458 18.3472 14.5299 18.2211 14.3438C18.095 14.1577 17.9212 14.0079 17.7175 13.9099C16.9248 13.4952 15.575 13.5456 15.575 12.7458C15.575 12.5009 15.7956 12.1534 16.4496 12.1455C17.0836 12.1336 17.415 12.5404 17.4599 12.7715L18.1828 12.5612C18.055 12.2817 17.7834 11.5007 16.4156 11.5007C16.1725 11.4949 15.9301 11.5282 15.6978 11.5995C14.8492 11.8838 14.6994 12.5315 14.6994 12.8544C14.7104 14.7225 17.5159 14.2367 17.4839 15.2024C17.4729 15.5559 17.1225 15.8363 16.4186 15.8057C15.6888 15.776 15.4392 15.3327 15.3204 15.074L14.5596 15.3307ZM7.56595 12.2264C8.19993 12.2136 8.57632 12.5384 8.64521 12.7547L9.41895 12.5454C9.29016 12.2699 8.84588 11.5372 7.59291 11.48C5.21875 11.48 5.04004 13.6828 5.04004 13.906C5.04004 16.2253 6.78222 16.483 7.46012 16.5136C8.1259 16.5366 8.79235 16.4949 9.4499 16.3892V13.5851H7.00087V14.3601H8.53039C8.5342 14.3601 8.53786 14.3616 8.54064 14.3641C8.54342 14.3667 8.54511 14.3702 8.54537 14.374V15.7336C8.54497 15.7377 8.54346 15.7416 8.541 15.7449C8.53854 15.7482 8.53522 15.7508 8.53139 15.7523C8.22568 15.8026 7.91552 15.8215 7.60589 15.8086C7.39123 15.8017 6.04741 15.7484 6.04741 14.0077C6.04741 12.888 6.61249 12.2363 7.56595 12.2304" fill="white"/>
</svg>
