<svg width="17" height="18" viewBox="0 0 17 18" fill="none" xmlns="http://www.w3.org/2000/svg">
<rect width="16.5" height="16.8582" transform="translate(0.25 0.25)" fill="white"/>
<path d="M16.7499 8.8689C16.7499 8.31402 16.7008 7.78724 16.6165 7.27429H8.6792V10.4421H13.2239C13.0201 11.4818 12.4233 12.3596 11.5379 12.9569V15.064H14.2494C15.8368 13.5961 16.7499 11.4323 16.7499 8.86845V8.8689Z" fill="#4285F4"/>
<path d="M8.67916 17.1082C10.9549 17.1082 12.8586 16.3494 14.2493 15.0639L11.5379 12.9568C10.7791 13.4627 9.81702 13.7718 8.67916 13.7718C6.48062 13.7718 4.61928 12.2896 3.952 10.2877H1.15576V12.4582C2.53939 15.2116 5.38425 17.1082 8.67872 17.1082H8.67916Z" fill="#34A853"/>
<path d="M3.95171 10.2878C3.77597 9.78194 3.68498 9.24134 3.68498 8.67933C3.68498 8.11731 3.78311 7.57671 3.95171 7.0709V4.90045H1.15591C0.580072 6.03786 0.25 7.31667 0.25 8.67933C0.25 10.042 0.580072 11.3203 1.15591 12.4582L3.95171 10.2878Z" fill="#FBBC05"/>
<path d="M8.67917 3.5864C9.92229 3.5864 11.0325 4.01505 11.9103 4.85093L14.3127 2.44854C12.8586 1.08588 10.9549 0.25 8.67917 0.25C5.38469 0.25 2.53983 2.14657 1.15576 4.9L3.95156 7.07044C4.61884 5.0686 6.48017 3.5864 8.67872 3.5864H8.67917Z" fill="#EA4335"/>
</svg>
