<svg width="240" height="240" viewBox="0 0 240 240" fill="none" xmlns="http://www.w3.org/2000/svg">
<rect x="6.46155" y="43.3846" width="198.462" height="163.269" rx="18.4615" fill="#3D008F"/>
<rect x="17.5385" y="54.4615" width="176.308" height="98.6538" rx="18.4615" fill="#A366F5"/>
<rect x="28.6154" y="65.5385" width="48.9231" height="76.5" rx="11.0769" fill="#E0CCFC"/>
<g clip-path="url(#clip0_205_4967)">
<path d="M63.9418 116.192C64.3043 116.192 64.6018 115.892 64.6018 115.516V115.351C64.6018 110.013 58.5282 103.788 53.3198 103.788C58.5282 103.788 64.6018 97.5642 64.6018 92.226H64.5984V92.0605C64.5984 91.6881 64.3077 91.3846 63.9384 91.3846H42.2364C41.867 91.3846 41.5763 91.6847 41.5763 92.0605V92.5502C41.9901 94.5261 42.2808 98.8159 42.2808 103.788C42.2808 108.761 41.9935 113.047 41.5763 115.027V115.475C41.5763 115.847 41.867 116.151 42.2364 116.151L63.9452 116.192H63.9418Z" fill="url(#paint0_linear_205_4967)"/>
<path d="M51.697 95.885C51.5168 95.4659 51.2559 95.102 50.9282 94.8036C50.6056 94.5052 50.2126 94.2724 49.7596 94.1085C49.3117 93.9481 48.814 93.8654 48.2803 93.8654C47.7467 93.8654 47.2439 93.9464 46.796 94.1085C46.3464 94.2724 45.9534 94.5052 45.6256 94.8071C45.2996 95.1055 45.0422 95.4694 44.862 95.8885C44.6818 96.3059 44.5891 96.7699 44.5891 97.2683C44.5891 97.7668 44.6818 98.2376 44.862 98.6585C45.0422 99.081 45.2996 99.445 45.6256 99.7502C45.9517 100.052 46.3464 100.292 46.7943 100.459C47.2439 100.623 47.7432 100.707 48.2803 100.707C48.8175 100.707 49.3134 100.626 49.7613 100.463C50.2143 100.294 50.609 100.056 50.9316 99.752C51.2594 99.4484 51.5168 99.0828 51.697 98.6602C51.8772 98.2376 51.9698 97.7702 51.9698 97.27C51.9698 96.7699 51.8772 96.3093 51.697 95.8902H51.6953L51.697 95.885Z" fill="white"/>
<path d="M50.8803 96.4984C50.7782 96.2609 50.6304 96.0547 50.4447 95.8856C50.2618 95.7165 50.0392 95.5845 49.7824 95.4917C49.5286 95.4008 49.2466 95.3539 48.9442 95.3539C48.6418 95.3539 48.3569 95.3998 48.1031 95.4917C47.8483 95.5845 47.6256 95.7165 47.4399 95.8875C47.2551 96.0566 47.1093 96.2628 47.0072 96.5003C46.905 96.7369 46.8525 96.9998 46.8525 97.2822C46.8525 97.5647 46.905 97.8315 47.0072 98.07C47.1093 98.3094 47.2551 98.5157 47.4399 98.6886C47.6246 98.8597 47.8483 98.9955 48.1021 99.0903C48.3569 99.1832 48.6398 99.2311 48.9442 99.2311C49.2486 99.2311 49.5296 99.1851 49.7834 99.0923C50.0401 98.9965 50.2638 98.8616 50.4466 98.6896C50.6323 98.5176 50.7782 98.3104 50.8803 98.071C50.9824 97.8315 51.0349 97.5666 51.0349 97.2832C51.0349 96.9998 50.9824 96.7388 50.8803 96.5013H50.8793L50.8803 96.4984Z" fill="#222222"/>
</g>
<rect x="81.2308" y="65.5385" width="48.9231" height="76.5" rx="11.0769" fill="#E0CCFC"/>
<g clip-path="url(#clip1_205_4967)">
<path d="M116.557 116.192C116.92 116.192 117.217 115.892 117.217 115.516V115.351C117.217 110.013 111.144 103.788 105.935 103.788C111.144 103.788 117.217 97.5642 117.217 92.226H117.214V92.0605C117.214 91.6881 116.923 91.3846 116.554 91.3846H94.8517C94.4824 91.3846 94.1917 91.6847 94.1917 92.0605V92.5502C94.6055 94.5261 94.8962 98.8159 94.8962 103.788C94.8962 108.761 94.6089 113.047 94.1917 115.027V115.475C94.1917 115.847 94.4824 116.151 94.8517 116.151L116.561 116.192H116.557Z" fill="url(#paint1_linear_205_4967)"/>
<path d="M104.312 95.885C104.132 95.4659 103.871 95.102 103.544 94.8036C103.221 94.5052 102.828 94.2724 102.375 94.1085C101.927 93.9481 101.429 93.8654 100.896 93.8654C100.362 93.8654 99.8592 93.9464 99.4114 94.1085C98.9618 94.2724 98.5688 94.5052 98.241 94.8071C97.915 95.1055 97.6576 95.4694 97.4774 95.8885C97.2972 96.3059 97.2045 96.7699 97.2045 97.2683C97.2045 97.7668 97.2972 98.2376 97.4774 98.6585C97.6576 99.081 97.915 99.445 98.241 99.7502C98.5671 100.052 98.9618 100.292 99.4096 100.459C99.8592 100.623 100.359 100.707 100.896 100.707C101.433 100.707 101.929 100.626 102.377 100.463C102.83 100.294 103.224 100.056 103.547 99.752C103.875 99.4484 104.132 99.0828 104.312 98.6602C104.493 98.2376 104.585 97.7702 104.585 97.27C104.585 96.7699 104.493 96.3093 104.312 95.8902H104.311L104.312 95.885Z" fill="white"/>
<path d="M103.496 96.4984C103.394 96.2609 103.246 96.0547 103.06 95.8856C102.877 95.7165 102.655 95.5845 102.398 95.4917C102.144 95.4008 101.862 95.3539 101.56 95.3539C101.257 95.3539 100.972 95.3998 100.718 95.4917C100.464 95.5845 100.241 95.7165 100.055 95.8875C99.8705 96.0566 99.7246 96.2628 99.6225 96.5003C99.5204 96.7369 99.4679 96.9998 99.4679 97.2822C99.4679 97.5647 99.5204 97.8315 99.6225 98.07C99.7246 98.3094 99.8705 98.5157 100.055 98.6886C100.24 98.8597 100.464 98.9955 100.717 99.0903C100.972 99.1832 101.255 99.2311 101.56 99.2311C101.864 99.2311 102.145 99.1851 102.399 99.0923C102.656 98.9965 102.879 98.8616 103.062 98.6896C103.248 98.5176 103.394 98.3104 103.496 98.071C103.598 97.8315 103.65 97.5666 103.65 97.2832C103.65 96.9998 103.598 96.7388 103.496 96.5013H103.495L103.496 96.4984Z" fill="#222222"/>
</g>
<rect x="133.846" y="65.5385" width="48.9231" height="76.5" rx="11.0769" fill="#E0CCFC"/>
<g clip-path="url(#clip2_205_4967)">
<path d="M169.173 116.192C169.535 116.192 169.833 115.892 169.833 115.516V115.351C169.833 110.013 163.759 103.788 158.551 103.788C163.759 103.788 169.833 97.5642 169.833 92.226H169.829V92.0605C169.829 91.6881 169.539 91.3846 169.169 91.3846H147.467C147.098 91.3846 146.807 91.6847 146.807 92.0605V92.5502C147.221 94.5261 147.512 98.8159 147.512 103.788C147.512 108.761 147.224 113.047 146.807 115.027V115.475C146.807 115.847 147.098 116.151 147.467 116.151L169.176 116.192H169.173Z" fill="url(#paint2_linear_205_4967)"/>
<path d="M156.928 95.885C156.748 95.4659 156.487 95.102 156.159 94.8036C155.836 94.5052 155.443 94.2724 154.99 94.1085C154.542 93.9481 154.045 93.8654 153.511 93.8654C152.977 93.8654 152.475 93.9464 152.027 94.1085C151.577 94.2724 151.184 94.5052 150.856 94.8071C150.53 95.1055 150.273 95.4694 150.093 95.8885C149.913 96.3059 149.82 96.7699 149.82 97.2683C149.82 97.7668 149.913 98.2376 150.093 98.6585C150.273 99.081 150.53 99.445 150.856 99.7502C151.182 100.052 151.577 100.292 152.025 100.459C152.475 100.623 152.974 100.707 153.511 100.707C154.048 100.707 154.544 100.626 154.992 100.463C155.445 100.294 155.84 100.056 156.162 99.752C156.49 99.4484 156.748 99.0828 156.928 98.6602C157.108 98.2376 157.201 97.7702 157.201 97.27C157.201 96.7699 157.108 96.3093 156.928 95.8902H156.926L156.928 95.885Z" fill="white"/>
<path d="M156.111 96.4984C156.009 96.2609 155.861 96.0547 155.675 95.8856C155.493 95.7165 155.27 95.5845 155.013 95.4917C154.759 95.4008 154.477 95.3539 154.175 95.3539C153.873 95.3539 153.588 95.3998 153.334 95.4917C153.079 95.5845 152.856 95.7165 152.671 95.8875C152.486 96.0566 152.34 96.2628 152.238 96.5003C152.136 96.7369 152.083 96.9998 152.083 97.2822C152.083 97.5647 152.136 97.8315 152.238 98.07C152.34 98.3094 152.486 98.5157 152.671 98.6886C152.855 98.8597 153.079 98.9955 153.333 99.0903C153.588 99.1832 153.871 99.2311 154.175 99.2311C154.479 99.2311 154.76 99.1851 155.014 99.0923C155.271 98.9965 155.495 98.8616 155.677 98.6896C155.863 98.5176 156.009 98.3104 156.111 98.071C156.213 97.8315 156.266 97.5666 156.266 97.2832C156.266 96.9998 156.213 96.7388 156.111 96.5013H156.11L156.111 96.4984Z" fill="#222222"/>
</g>
<circle cx="51.6923" cy="178.038" r="10.1538" fill="#A366F5"/>
<circle cx="105.692" cy="178.038" r="10.1538" fill="#A366F5"/>
<circle cx="159.692" cy="178.038" r="10.1538" fill="#A366F5"/>
<rect x="218.769" y="87.6346" width="6.46154" height="50.7692" fill="#C199F8"/>
<rect x="204.923" y="131.222" width="6.46154" height="46.1538" fill="#C199F8"/>
<path d="M234.261 154.299C234.261 166.933 224.019 177.175 211.385 177.175C211.385 177.175 211.385 166.933 211.385 154.299C211.385 141.665 211.385 131.423 211.385 131.423C224.019 131.423 234.261 141.665 234.261 154.299Z" fill="#3D008F"/>
<circle cx="222" cy="82.5577" r="10.6154" fill="#F2FF49"/>
<defs>
<linearGradient id="paint0_linear_205_4967" x1="56.4866" y1="91.5467" x2="49.6964" y2="116.523" gradientUnits="userSpaceOnUse">
<stop stop-color="#CD65FD"/>
<stop offset="0.31" stop-color="#A53EF5"/>
<stop offset="1" stop-color="#6B0AE5"/>
</linearGradient>
<linearGradient id="paint1_linear_205_4967" x1="109.102" y1="91.5467" x2="102.312" y2="116.523" gradientUnits="userSpaceOnUse">
<stop stop-color="#CD65FD"/>
<stop offset="0.31" stop-color="#A53EF5"/>
<stop offset="1" stop-color="#6B0AE5"/>
</linearGradient>
<linearGradient id="paint2_linear_205_4967" x1="161.717" y1="91.5467" x2="154.927" y2="116.523" gradientUnits="userSpaceOnUse">
<stop stop-color="#CD65FD"/>
<stop offset="0.31" stop-color="#A53EF5"/>
<stop offset="1" stop-color="#6B0AE5"/>
</linearGradient>
<clipPath id="clip0_205_4967">
<rect width="23.0769" height="24.8077" fill="white" transform="translate(41.5385 91.3846)"/>
</clipPath>
<clipPath id="clip1_205_4967">
<rect width="23.0769" height="24.8077" fill="white" transform="translate(94.1538 91.3846)"/>
</clipPath>
<clipPath id="clip2_205_4967">
<rect width="23.0769" height="24.8077" fill="white" transform="translate(146.769 91.3846)"/>
</clipPath>
</defs>
</svg>
