<svg width="240" height="240" viewBox="0 0 240 240" fill="none" xmlns="http://www.w3.org/2000/svg">
<g clip-path="url(#clip0_97_1711)">
<path d="M220.038 222.923C220.038 223.453 219.721 224.221 218.523 225.206C217.342 226.177 215.509 227.181 213.005 228.176C208.011 230.162 200.697 231.981 191.55 233.519C173.28 236.592 147.982 238.5 120 238.5C92.0178 238.5 66.7204 236.592 48.4503 233.519C39.3031 231.981 31.9886 230.162 26.9952 228.176C24.4912 227.181 22.6581 226.177 21.4769 225.206C20.2785 224.221 19.9615 223.453 19.9615 222.923C19.9615 222.394 20.2785 221.625 21.4769 220.64C22.6581 219.67 24.4912 218.666 26.9952 217.67C31.9886 215.684 39.3031 213.866 48.4503 212.327C66.7204 209.254 92.0178 207.346 120 207.346C147.982 207.346 173.28 209.254 191.55 212.327C200.697 213.866 208.011 215.684 213.005 217.67C215.509 218.666 217.342 219.67 218.523 220.64C219.721 221.625 220.038 222.394 220.038 222.923Z" fill="#A366F5" stroke="#3D008F" stroke-width="3"/>
<path d="M191.423 222.923C191.423 223.144 191.295 223.603 190.48 224.283C189.68 224.951 188.409 225.664 186.631 226.383C183.087 227.815 177.869 229.136 171.312 230.256C158.222 232.493 140.079 233.885 120 233.885C99.9206 233.885 81.7784 232.493 68.6882 230.256C62.1311 229.136 56.9133 227.815 53.3695 226.383C51.5905 225.664 50.3201 224.951 49.5199 224.283C48.7052 223.603 48.5769 223.144 48.5769 222.923C48.5769 222.702 48.7052 222.243 49.5199 221.563C50.3201 220.895 51.5905 220.182 53.3695 219.463C56.9133 218.031 62.1311 216.711 68.6882 215.59C81.7784 213.353 99.9206 211.962 120 211.962C140.079 211.962 158.222 213.353 171.312 215.59C177.869 216.711 183.087 218.031 186.631 219.463C188.409 220.182 189.68 220.895 190.48 221.563C191.295 222.243 191.423 222.702 191.423 222.923Z" fill="#C199F8" stroke="#3D008F" stroke-width="3"/>
<path d="M151.732 222.913C151.732 222.913 151.732 222.915 151.731 222.919C151.731 222.915 151.731 222.913 151.732 222.913ZM151.486 222.579C151.681 222.778 151.722 222.891 151.73 222.923C151.722 222.955 151.681 223.069 151.486 223.267C151.207 223.551 150.718 223.897 149.957 224.272C148.439 225.02 146.147 225.734 143.192 226.35C137.306 227.576 129.106 228.346 120 228.346C110.894 228.346 102.694 227.576 96.8082 226.35C93.8529 225.734 91.5606 225.02 90.0435 224.272C89.282 223.897 88.7933 223.551 88.5145 223.267C88.3194 223.069 88.2778 222.955 88.27 222.923C88.2778 222.891 88.3194 222.778 88.5145 222.579C88.7933 222.295 89.282 221.949 90.0435 221.574C91.5606 220.827 93.8529 220.112 96.8082 219.496C102.694 218.27 110.894 217.5 120 217.5C129.106 217.5 137.306 218.27 143.192 219.496C146.147 220.112 148.439 220.827 149.957 221.574C150.718 221.949 151.207 222.295 151.486 222.579ZM88.2684 222.913C88.2686 222.913 88.269 222.915 88.2692 222.919C88.2684 222.915 88.2683 222.913 88.2684 222.913ZM88.2684 222.933C88.2683 222.933 88.2684 222.931 88.2692 222.927C88.269 222.931 88.2686 222.933 88.2684 222.933ZM151.731 222.927C151.732 222.931 151.732 222.933 151.732 222.933C151.731 222.933 151.731 222.931 151.731 222.927Z" fill="#E0CCFC" stroke="#3D008F" stroke-width="3"/>
<g clip-path="url(#clip1_97_1711)">
<path d="M166.936 157.846C168.502 157.846 169.788 156.551 169.788 154.929V154.214C169.788 131.174 143.55 104.308 121.049 104.308C143.55 104.308 169.788 77.4417 169.788 54.401H169.773V53.6865C169.773 52.079 168.517 50.7692 166.922 50.7692H73.1688C71.5732 50.7692 70.3174 52.0642 70.3174 53.6865V55.8001C72.1051 64.3287 73.3608 82.8447 73.3608 104.308C73.3608 125.771 72.1198 144.272 70.3174 152.815V154.75C70.3174 156.358 71.5732 157.668 73.1688 157.668L166.951 157.846H166.936Z" fill="url(#paint0_linear_97_1711)"/>
<path d="M114.039 70.1945C113.26 68.3855 112.133 66.8147 110.718 65.5268C109.324 64.2389 107.626 63.2338 105.669 62.5266C103.734 61.8343 101.584 61.4769 99.2788 61.4769C96.9733 61.4769 94.8012 61.8268 92.8663 62.5266C90.924 63.2338 89.2264 64.2389 87.8104 65.5417C86.4019 66.8296 85.2899 68.4004 84.5115 70.2094C83.7331 72.011 83.3328 74.0135 83.3328 76.165C83.3328 78.3165 83.7331 80.3489 84.5115 82.1653C85.2899 83.9892 86.4019 85.56 87.8104 86.8777C89.219 88.1805 90.924 89.2153 92.8589 89.9374C94.8012 90.6447 96.9584 91.0094 99.2788 91.0094C101.599 91.0094 103.742 90.6595 105.676 89.9523C107.634 89.2227 109.339 88.1954 110.732 86.8852C112.148 85.5749 113.26 83.9967 114.039 82.1728C114.817 80.3488 115.217 78.3314 115.217 76.1725C115.217 74.0135 114.817 72.0258 114.039 70.2168H114.031L114.039 70.1945Z" fill="white"/>
<path d="M110.511 72.8415C110.07 71.8164 109.431 70.9263 108.629 70.1965C107.839 69.4666 106.877 68.8971 105.768 68.4964C104.671 68.104 103.453 67.9016 102.147 67.9016C100.84 67.9016 99.6094 68.0998 98.513 68.4964C97.4124 68.8971 96.4504 69.4666 95.648 70.2049C94.8499 70.9347 94.2197 71.8248 93.7787 72.8499C93.3376 73.8708 93.1107 75.0056 93.1107 76.2248C93.1107 77.444 93.3376 78.5956 93.7787 79.625C94.2197 80.6585 94.8499 81.5486 95.648 82.2953C96.4462 83.0336 97.4124 83.62 98.5088 84.0292C99.6094 84.4299 100.832 84.6366 102.147 84.6366C103.462 84.6366 104.676 84.4384 105.772 84.0376C106.881 83.6242 107.847 83.042 108.637 82.2995C109.439 81.5571 110.07 80.6627 110.511 79.6292C110.952 78.5956 111.179 77.4524 111.179 76.229C111.179 75.0056 110.952 73.8793 110.511 72.8542H110.506L110.511 72.8415Z" fill="#222222"/>
</g>
<path d="M41.5433 101.538C41.5433 101.538 41.5433 113.826 34.1539 115.846C41.553 117.866 41.5336 130.154 41.5336 130.154C41.5336 130.154 41.5336 117.866 48.9231 115.846C41.5239 113.826 41.5433 101.538 41.5433 101.538Z" fill="#F2FF49"/>
<path d="M73.851 169.846C73.851 169.846 73.851 182.134 66.4615 184.154C73.8607 186.174 73.8413 198.462 73.8413 198.462C73.8413 198.462 73.8413 186.174 81.2308 184.154C73.8316 182.134 73.851 169.846 73.851 169.846Z" fill="#F2FF49"/>
<path d="M185.544 151.385C185.544 151.385 185.544 163.676 178.154 165.692C185.555 167.709 185.533 180 185.533 180C185.533 180 185.533 167.709 192.923 165.692C185.522 163.676 185.544 151.385 185.544 151.385Z" fill="#F2FF49"/>
<path d="M195.698 24C195.698 24 195.698 36.2912 188.308 38.3077C195.709 40.3241 195.687 52.6154 195.687 52.6154C195.687 52.6154 195.687 40.3241 203.077 38.3077C195.675 36.2912 195.698 24 195.698 24Z" fill="#F2FF49"/>
<path opacity="0.1" d="M18.4615 0.923096H221.538V224.308C221.538 224.308 213.692 240 120 240C26.3077 240 18.4615 224.308 18.4615 224.308V0.923096Z" fill="#E0CCFC"/>
<path opacity="0.1" d="M18.4615 29.0769H221.538V224.308C221.538 224.308 213.692 240 120 240C26.3077 240 18.4615 224.308 18.4615 224.308L18.4615 29.0769Z" fill="#E0CCFC"/>
<path opacity="0.1" d="M18.4615 57.2308H221.538V224.308C221.538 224.308 213.692 240 120 240C26.3077 240 18.4615 224.308 18.4615 224.308L18.4615 57.2308Z" fill="#E0CCFC"/>
<path opacity="0.1" d="M18.4615 84H221.538V224.308C221.538 224.308 213.692 240 120 240C26.3077 240 18.4615 224.308 18.4615 224.308L18.4615 84Z" fill="#E0CCFC"/>
<path opacity="0.1" d="M18.4615 111.692H221.538V224.308C221.538 224.308 213.692 240 120 240C26.3077 240 18.4615 224.308 18.4615 224.308L18.4615 111.692Z" fill="#E0CCFC"/>
</g>
<defs>
<linearGradient id="paint0_linear_97_1711" x1="134.73" y1="51.4688" x2="105.443" y2="159.284" gradientUnits="userSpaceOnUse">
<stop stop-color="#CD65FD"/>
<stop offset="0.31" stop-color="#A53EF5"/>
<stop offset="1" stop-color="#6B0AE5"/>
</linearGradient>
<clipPath id="clip0_97_1711">
<rect width="240" height="240" fill="white"/>
</clipPath>
<clipPath id="clip1_97_1711">
<rect width="99.6923" height="107.077" fill="white" transform="translate(70.1539 50.7692)"/>
</clipPath>
</defs>
</svg>
