<svg width="240" height="240" viewBox="0 0 240 240" fill="none" xmlns="http://www.w3.org/2000/svg">
<g style="mix-blend-mode:multiply">
<path d="M62.7692 194.921L89.9704 206.91L97.5387 222.25C97.5387 222.25 123.58 233.008 133.132 237.344C144.597 241.314 161.397 229.404 161.397 229.404C161.397 229.404 228.864 189.704 234.201 186.79C239.537 183.876 237.113 181.891 232.424 180.065C228.16 177.699 204.599 169.846 204.599 169.846C204.599 169.846 144.861 173.006 143.533 173.546C142.205 174.094 62.7692 194.921 62.7692 194.921Z" fill="#E0CCFC"/>
</g>
<path d="M196.571 67.6562L197.449 66.8618L194.135 65.5484C192.743 64.8327 191.067 64.5496 189.272 64.8484L64.0806 85.6668C59.2883 86.4611 55.3739 91.0699 55.3739 95.899V184.607C55.3739 186.172 55.793 187.572 56.5126 188.728L56.5522 188.791C56.7815 189.153 57.0346 189.491 57.3192 189.798L59.5335 192.684L60.5457 191.756C61.6291 192.063 62.8232 192.141 64.0806 191.937L189.264 171.119C194.056 170.324 197.979 165.715 197.979 160.886V72.1785C197.979 70.4246 197.457 68.8831 196.571 67.6562Z" fill="#C199F8"/>
<path d="M201.885 73.3206V163.819C201.885 168.744 197.94 173.44 193.107 174.248L67.0746 195.494C62.2571 196.302 58.3041 192.945 58.3041 188.011V97.5051C58.3041 92.5795 62.2493 87.8836 67.0746 87.0679L193.107 65.8293C197.932 65.0136 201.885 68.3792 201.885 73.3127V73.3206Z" fill="#5100BE"/>
<path d="M201.885 83.2888V163.943C201.885 168.849 197.94 173.527 193.107 174.332L67.0746 195.495C62.2571 196.299 58.3041 192.955 58.3041 188.041V107.387L201.885 83.2888Z" fill="#28005F"/>
<path d="M118.443 49.4722C121.576 51.4102 127.021 52.1142 130.536 51.0359L135.672 49.4602C139.194 48.3829 142.766 50.4253 143.605 54.0125L144.834 59.2466C145.673 62.8337 149.026 67.1829 152.282 68.9064L157.031 71.4267C160.287 73.1502 161.362 77.1253 159.416 80.2571L156.586 84.8233C154.648 87.9561 153.944 93.4009 155.022 96.9158L156.598 102.052C157.675 105.574 155.633 109.146 152.046 109.985L146.811 111.214C143.224 112.053 138.875 115.406 137.152 118.662L134.631 123.411C132.908 126.667 128.933 127.742 125.801 125.796L121.235 122.966C118.102 121.028 112.657 120.324 109.142 121.402L104.006 122.978C100.484 124.055 96.9115 122.013 96.0729 118.426L94.8435 113.191C94.0048 109.604 90.6516 105.255 87.3958 103.532L82.6465 101.011C79.3907 99.2878 78.3162 95.3127 80.262 92.1809L83.0922 87.6147C85.0301 84.4819 85.7342 79.0372 84.6558 75.5222L83.0802 70.3863C82.0029 66.8636 84.0453 63.2916 87.6324 62.4529L92.8665 61.2235C96.4537 60.3849 100.803 57.0317 102.526 53.7758L105.047 49.0266C106.77 45.7707 110.745 44.6963 113.877 46.642L118.443 49.4722Z" fill="#E0CCFC"/>
<g clip-path="url(#clip0_205_5084)">
<path d="M132.7 104.877C133.191 104.941 133.646 104.587 133.712 104.078L133.741 103.854C134.676 96.6257 127.542 87.1344 120.489 86.2224C127.542 87.1344 136.855 79.7698 137.79 72.5419L137.785 72.5413L137.814 72.3172C137.879 71.8129 137.539 71.3511 137.039 71.2865L107.654 67.4868C107.154 67.4221 106.708 67.7774 106.642 68.2864L106.556 68.9494C106.77 71.6973 106.413 77.5567 105.542 84.2897C104.672 91.0227 103.532 96.7762 102.621 99.3833L102.542 99.9903C102.477 100.495 102.817 100.956 103.318 101.021L132.705 104.878L132.7 104.877Z" fill="url(#paint0_linear_205_5084)"/>
<path d="M119.676 75.2369C119.505 74.6378 119.216 74.0994 118.824 73.638C118.44 73.1775 117.948 72.7934 117.363 72.4922C116.785 72.1966 116.126 71.9974 115.403 71.904C114.681 71.8105 113.986 71.8323 113.351 71.9734C112.713 72.1165 112.14 72.363 111.644 72.7143C111.15 73.0612 110.738 73.5089 110.42 74.0448C110.103 74.5785 109.897 75.1904 109.809 75.8654C109.722 76.5403 109.765 77.1941 109.935 77.7954C110.105 78.3992 110.39 78.937 110.778 79.4074C111.167 79.8732 111.659 80.2669 112.236 80.5719C112.817 80.8725 113.478 81.0743 114.205 81.1684C114.932 81.2624 115.618 81.2395 116.253 81.096C116.896 80.9465 117.472 80.6933 117.962 80.3388C118.459 79.9851 118.872 79.5351 119.19 78.9945C119.508 78.4539 119.715 77.8372 119.803 77.16C119.89 76.4827 119.845 75.8429 119.675 75.2439L119.673 75.2436L119.676 75.2369Z" fill="white"/>
<path d="M118.463 75.9243C118.366 75.5849 118.202 75.2797 117.98 75.0183C117.762 74.7573 117.484 74.5397 117.152 74.369C116.825 74.2015 116.451 74.0886 116.041 74.0357C115.632 73.9827 115.238 73.995 114.878 74.075C114.517 74.1561 114.193 74.2958 113.911 74.4948C113.631 74.6914 113.398 74.9451 113.218 75.2488C113.038 75.5512 112.921 75.898 112.872 76.2805C112.822 76.6629 112.847 77.0334 112.943 77.3742C113.039 77.7163 113.201 78.021 113.421 78.2876C113.641 78.5516 113.92 78.7747 114.247 78.9475C114.576 79.1178 114.951 79.2322 115.363 79.2855C115.775 79.3388 116.163 79.3258 116.523 79.2445C116.888 79.1598 117.214 79.0163 117.492 78.8154C117.773 78.615 118.007 78.36 118.187 78.0536C118.367 77.7473 118.485 77.3978 118.535 77.014C118.584 76.6303 118.559 76.2677 118.462 75.9283L118.461 75.9281L118.463 75.9243Z" fill="#222222"/>
</g>
<path d="M173.563 137.054C173.916 126.292 174.395 115.539 174.537 104.777L74.8905 121.581C70.0684 122.388 66.1181 127.084 66.1181 132.009V178.033L173.288 159.962C172.024 152.598 173.319 144.165 173.555 137.046L173.563 137.054Z" fill="#F2FF49"/>
<path d="M201.885 117.475V163.688C201.885 168.634 197.94 173.349 193.107 174.16L67.0746 195.494C62.2571 196.305 58.3041 192.934 58.3041 187.98V141.766L201.885 117.475Z" fill="#5100BE"/>
<path d="M203.839 70.2477L198.845 67.4599C197.367 66.4834 195.312 66.3889 193.052 67.4048L96.7305 110.844C92.2499 112.868 88.5832 118.53 88.5832 123.429V213.418C88.5832 216.269 89.8317 218.254 91.752 219.018L96.0588 221.986L99.2276 217.529L193.052 175.216C197.533 173.192 201.2 167.53 201.2 162.631V73.9648L203.839 70.2477Z" fill="#C199F8"/>
<path d="M206.769 75.6059V165.967C206.769 170.886 203.111 176.58 198.642 178.613L111.574 218.147L102.563 222.235C98.0856 224.268 94.4436 221.895 94.4436 216.968V126.607C94.4436 121.688 98.0856 115.994 102.563 113.97L198.642 70.339C203.111 68.3144 206.769 70.679 206.769 75.6059Z" fill="#5100BE"/>
<path d="M206.769 79.3818V165.691C206.769 170.629 203.091 176.346 198.597 178.387L111.048 218.08L206.769 79.3818Z" fill="#3D008F"/>
<path d="M201.886 80.9658V163.853C201.886 168.368 198.545 173.588 194.466 175.449L106.747 215.459C102.66 217.32 99.3274 215.15 99.3274 210.635V127.748C99.3274 123.233 102.66 118.013 106.747 116.159L194.466 76.1418C198.545 74.2804 201.886 76.4508 201.886 80.9658Z" stroke="#E0CCFC" stroke-linecap="round" stroke-linejoin="round" stroke-dasharray="4.99 4.99"/>
<path d="M117.886 162.353C117.886 166.655 115.544 170.816 111.5 172.845L93.4669 181.94V155.804L101.216 151.9C106.901 149.035 113.865 151.409 116.684 157.162C117.5 158.825 117.886 160.597 117.886 162.346V162.353Z" fill="#3D008F"/>
<path d="M119.839 163.695C119.839 168.131 117.404 172.422 113.198 174.515L94.4436 183.893V156.94L102.503 152.915C108.415 149.961 115.657 152.408 118.589 158.341C119.438 160.056 119.839 161.883 119.839 163.687V163.695Z" fill="#5100BE"/>
<path d="M53.4309 150.767C46.2253 149.955 39.6725 155.189 38.8524 162.39C38.0402 169.6 43.2713 176.156 50.469 176.977L94.4436 181.94V155.396L53.423 150.759L53.4309 150.767Z" fill="#3D008F"/>
<path d="M53.4309 152.718C46.2253 151.931 39.6725 157.001 38.8524 163.978C38.0402 170.962 43.2713 177.314 50.469 178.109L94.4436 182.917V157.202L53.423 152.71L53.4309 152.718Z" fill="#5100BE"/>
<path d="M51.9553 173.149C56.5405 173.149 60.2576 169.432 60.2576 164.847C60.2576 160.262 56.5405 156.545 51.9553 156.545C47.37 156.545 43.6529 160.262 43.6529 164.847C43.6529 169.432 47.37 173.149 51.9553 173.149Z" fill="#C199F8"/>
<path d="M60.2576 165.335C60.2576 169.65 56.5395 173.149 51.9553 173.149C49.8797 173.149 47.9757 172.426 46.513 171.234C44.7561 169.804 43.6529 167.689 43.6529 165.335C43.6529 161.021 47.371 157.521 51.9553 157.521C53.0503 157.521 54.1044 157.721 55.0605 158.09C58.1085 159.244 60.2576 162.059 60.2576 165.335Z" fill="#E0CCFC"/>
<path d="M58.3041 164.157C58.3041 168.583 54.4861 172.173 49.7786 172.173C48.6541 172.173 47.5717 171.967 46.5899 171.589C44.7858 170.121 43.6529 167.952 43.6529 165.537C43.6529 161.111 47.471 157.521 52.1785 157.521C53.3029 157.521 54.3854 157.726 55.3672 158.105C57.1713 159.573 58.3041 161.742 58.3041 164.157Z" fill="#F0E5FD"/>
<path d="M24.5425 27.2604C26.4914 27.0684 29.0188 25.6091 30.1559 24.0195L31.8174 21.6968C32.9581 20.105 35.1262 19.8154 36.6379 21.0604L38.846 22.8751C40.3577 24.12 43.1776 24.8756 45.1093 24.5533L47.9289 24.0858C49.8605 23.7635 51.597 25.0962 51.7854 27.0472L52.0629 29.8894C52.2549 31.8383 53.7142 34.3658 55.3038 35.5028L57.6265 37.1643C59.2183 38.305 59.5079 40.4731 58.2629 41.9848L56.4482 44.1929C55.2033 45.7047 54.4477 48.5245 54.77 50.4562L55.2375 53.2758C55.5598 55.2074 54.2271 56.9439 52.2761 57.1323L49.4338 57.4098C47.485 57.6018 44.9575 59.0611 43.8204 60.6507L42.1589 62.9734C41.0182 64.5652 38.8501 64.8548 37.3384 63.6098L35.1303 61.7951C33.6186 60.5502 30.7987 59.7946 28.8671 60.1169L26.0475 60.5844C24.1158 60.9067 22.3794 59.574 22.191 57.623L21.9135 54.7808C21.7215 52.8319 20.2622 50.3044 18.6726 49.1674L16.3498 47.5059C14.7581 46.3652 14.4685 44.1971 15.7134 42.6854L17.5281 40.4772C18.7731 38.9655 19.5287 36.1457 19.2064 34.214L18.7388 31.3944C18.4165 29.4628 19.7493 27.7263 21.7002 27.5379L24.5425 27.2604Z" fill="#E0CCFC"/>
<g clip-path="url(#clip1_205_5084)">
<path d="M48.4417 46.0685C48.6696 45.9369 48.7477 45.6404 48.6113 45.4041L48.5512 45.3001C46.6141 41.9448 40.5378 40.2366 37.264 42.1267C40.5378 40.2366 42.0966 34.1203 40.1594 30.765L40.1573 30.7663L40.0972 30.6622C39.962 30.4281 39.6692 30.3429 39.4371 30.4769L25.7963 38.3524C25.5642 38.4864 25.4903 38.7805 25.6267 39.0167L25.8044 39.3245C26.7816 40.4163 28.521 43.0072 30.3255 46.1327C32.13 49.2582 33.5049 52.0566 33.961 53.4521L34.1237 53.7339C34.2588 53.968 34.5517 54.0532 34.7838 53.9192L48.4439 46.0672L48.4417 46.0685Z" fill="url(#paint1_linear_205_5084)"/>
<path d="M33.3759 37.748C33.1106 37.5499 32.8146 37.4158 32.5003 37.3472C32.1892 37.2767 31.8577 37.273 31.5135 37.3344C31.1738 37.3961 30.831 37.5247 30.4955 37.7184C30.1601 37.912 29.8734 38.1454 29.6508 38.4099C29.4276 38.676 29.2651 38.965 29.1686 39.2736C29.072 39.5795 29.0423 39.9017 29.0811 40.2305C29.1193 40.5582 29.2294 40.8835 29.4103 41.1968C29.5912 41.5101 29.8203 41.7724 30.0863 41.9715C30.3529 42.1718 30.6467 42.3071 30.9625 42.3806C31.2769 42.452 31.612 42.4595 31.9542 42.4021C32.2963 42.342 32.6408 42.2139 32.9785 42.0189C33.3161 41.824 33.5984 41.5931 33.8204 41.3276C34.0438 41.0569 34.2055 40.7641 34.2982 40.4562C34.394 40.1465 34.4231 39.8233 34.383 39.4923C34.3429 39.1613 34.2316 38.8339 34.05 38.5195C33.8685 38.2051 33.6432 37.9493 33.3778 37.7512L33.3767 37.7518L33.3759 37.748Z" fill="white"/>
<path d="M33.0852 38.4298C32.9348 38.3176 32.7671 38.2416 32.589 38.2027C32.4127 38.1628 32.2249 38.1606 32.0298 38.1954C31.8373 38.2304 31.643 38.3033 31.4529 38.413C31.2629 38.5228 31.1004 38.655 30.9743 38.8049C30.8478 38.9557 30.7557 39.1194 30.701 39.2943C30.6463 39.4677 30.6294 39.6502 30.6514 39.8365C30.6731 40.0223 30.7355 40.2066 30.838 40.3841C30.9405 40.5616 31.0703 40.7103 31.2211 40.8231C31.3721 40.9366 31.5386 41.0133 31.7176 41.055C31.8958 41.0954 32.0856 41.0997 32.2796 41.0671C32.4734 41.033 32.6686 40.9605 32.8599 40.85C33.0513 40.7396 33.2112 40.6087 33.3371 40.4582C33.4637 40.3049 33.5553 40.1389 33.6078 39.9645C33.6621 39.7889 33.6786 39.6058 33.6559 39.4182C33.6331 39.2307 33.57 39.0451 33.4672 38.867C33.3643 38.6888 33.2366 38.5439 33.0863 38.4316L33.0856 38.432L33.0852 38.4298Z" fill="#222222"/>
</g>
<defs>
<linearGradient id="paint0_linear_205_5084" x1="126.921" y1="70.2012" x2="113.354" y2="102.83" gradientUnits="userSpaceOnUse">
<stop stop-color="#CD65FD"/>
<stop offset="0.31" stop-color="#A53EF5"/>
<stop offset="1" stop-color="#6B0AE5"/>
</linearGradient>
<linearGradient id="paint1_linear_205_5084" x1="34.8121" y1="33.283" x2="39.6077" y2="51.4456" gradientUnits="userSpaceOnUse">
<stop stop-color="#CD65FD"/>
<stop offset="0.31" stop-color="#A53EF5"/>
<stop offset="1" stop-color="#6B0AE5"/>
</linearGradient>
<clipPath id="clip0_205_5084">
<rect width="31.5069" height="33.8699" fill="white" transform="translate(106.709 67.3646) rotate(7.36788)"/>
</clipPath>
<clipPath id="clip1_205_5084">
<rect width="16.7488" height="18.005" fill="white" transform="translate(25.3577 38.6057) rotate(-30)"/>
</clipPath>
</defs>
</svg>
