<svg width="1440" height="191" viewBox="0 0 1440 191" fill="none" xmlns="http://www.w3.org/2000/svg">
<path d="M-46.2417 58.36C-42.8064 59.9164 -37.1856 59.9164 -33.7583 58.36L-28.7504 56.0858C-25.315 54.5294 -21.42 56.1342 -20.0974 59.6664L-18.162 64.8194C-16.8395 68.3516 -12.8638 72.3272 -9.33163 73.6498L-4.17857 75.5852C-0.646431 76.9077 0.966423 80.8028 -0.598045 84.2382L-2.87216 89.2461C-4.42857 92.6814 -4.42857 98.3022 -2.87216 101.73L-0.598045 106.737C0.958359 110.173 -0.646431 114.068 -4.17857 115.39L-9.33163 117.326C-12.8638 118.648 -16.8395 122.624 -18.162 126.156L-20.0974 131.309C-21.42 134.841 -25.315 136.454 -28.7504 134.89L-33.7583 132.616C-37.1936 131.059 -42.8144 131.059 -46.2417 132.616L-51.2496 134.89C-54.685 136.446 -58.5801 134.841 -59.9026 131.309L-61.838 126.156C-63.1605 122.624 -67.1362 118.648 -70.6684 117.326L-75.8214 115.39C-79.3536 114.068 -80.9664 110.173 -79.402 106.737L-77.1278 101.73C-75.5714 98.2942 -75.5714 92.6734 -77.1278 89.2461L-79.402 84.2382C-80.9584 80.8028 -79.3536 76.9077 -75.8214 75.5852L-70.6684 73.6498C-67.1362 72.3272 -63.1605 68.3516 -61.838 64.8194L-59.9026 59.6664C-58.5801 56.1342 -54.685 54.5214 -51.2496 56.0858L-46.2417 58.36Z" fill="#E0CCFC"/>
<path d="M97.7583 58.36C101.194 59.9164 106.814 59.9164 110.242 58.36L115.25 56.0858C118.685 54.5294 122.58 56.1342 123.903 59.6664L125.838 64.8194C127.161 68.3516 131.136 72.3272 134.668 73.6498L139.821 75.5852C143.354 76.9077 144.966 80.8028 143.402 84.2382L141.128 89.2461C139.571 92.6814 139.571 98.3022 141.128 101.73L143.402 106.737C144.958 110.173 143.354 114.068 139.821 115.39L134.668 117.326C131.136 118.648 127.161 122.624 125.838 126.156L123.903 131.309C122.58 134.841 118.685 136.454 115.25 134.89L110.242 132.616C106.806 131.059 101.186 131.059 97.7583 132.616L92.7504 134.89C89.315 136.446 85.4199 134.841 84.0974 131.309L82.162 126.156C80.8395 122.624 76.8638 118.648 73.3316 117.326L68.1786 115.39C64.6464 114.068 63.0336 110.173 64.598 106.737L66.8722 101.73C68.4286 98.2942 68.4286 92.6734 66.8722 89.2461L64.598 84.2382C63.0416 80.8028 64.6464 76.9077 68.1786 75.5852L73.3316 73.6498C76.8638 72.3272 80.8395 68.3516 82.162 64.8194L84.0974 59.6664C85.4199 56.1342 89.315 54.5214 92.7504 56.0858L97.7583 58.36Z" fill="#E0CCFC"/>
<g clip-path="url(#clip0_670_1473)">
<path d="M119.508 112.744C120.015 112.744 120.431 112.325 120.431 111.799V111.568C120.431 104.106 111.941 95.4059 104.661 95.4059C111.941 95.4059 120.431 86.7055 120.431 79.2439H120.426V79.0125C120.426 78.4919 120.02 78.0677 119.504 78.0677H89.1684C88.6522 78.0677 88.2458 78.4871 88.2458 79.0125V79.697C88.8243 82.4589 89.2306 88.4552 89.2306 95.4059C89.2306 102.357 88.829 108.348 88.2458 111.115V111.741C88.2458 112.262 88.6522 112.686 89.1684 112.686L119.513 112.744H119.508Z" fill="url(#paint0_linear_670_1473)"/>
<path d="M102.392 84.3585C102.141 83.7727 101.776 83.264 101.318 82.8469C100.867 82.4298 100.318 82.1044 99.6843 81.8753C99.0582 81.6511 98.3626 81.5354 97.6166 81.5354C96.8706 81.5354 96.1678 81.6487 95.5417 81.8753C94.9133 82.1044 94.364 82.4298 93.9058 82.8517C93.4501 83.2688 93.0903 83.7775 92.8384 84.3634C92.5866 84.9468 92.457 85.5953 92.457 86.2921C92.457 86.9888 92.5866 87.647 92.8384 88.2352C93.0903 88.8259 93.4501 89.3346 93.9058 89.7613C94.3616 90.1832 94.9133 90.5183 95.5393 90.7522C96.1678 90.9812 96.8658 91.0993 97.6166 91.0993C98.3674 91.0993 99.0606 90.986 99.6867 90.757C100.32 90.5207 100.872 90.188 101.323 89.7637C101.781 89.3394 102.141 88.8283 102.392 88.2376C102.644 87.647 102.774 86.9936 102.774 86.2945C102.774 85.5953 102.644 84.9516 102.392 84.3658H102.39L102.392 84.3585Z" fill="white"/>
<path d="M101.251 85.2157C101.108 84.8838 100.902 84.5955 100.642 84.3592C100.386 84.1228 100.075 83.9384 99.7163 83.8086C99.3615 83.6815 98.9673 83.616 98.5446 83.616C98.1219 83.616 97.7236 83.6802 97.3689 83.8086C97.0127 83.9384 96.7015 84.1228 96.4418 84.3619C96.1836 84.5982 95.9797 84.8865 95.837 85.2185C95.6942 85.5491 95.6208 85.9166 95.6208 86.3114C95.6208 86.7062 95.6942 87.0792 95.837 87.4125C95.9797 87.7472 96.1836 88.0355 96.4418 88.2773C96.7001 88.5164 97.0127 88.7063 97.3675 88.8388C97.7236 88.9686 98.1192 89.0355 98.5446 89.0355C98.9701 89.0355 99.3629 88.9713 99.7176 88.8415C100.076 88.7077 100.389 88.5191 100.645 88.2787C100.904 88.0382 101.108 87.7486 101.251 87.4139C101.394 87.0792 101.467 86.709 101.467 86.3128C101.467 85.9166 101.394 85.5518 101.251 85.2198H101.25L101.251 85.2157Z" fill="#222222"/>
</g>
<path d="M241.758 58.36C245.194 59.9164 250.814 59.9164 254.242 58.36L259.25 56.0858C262.685 54.5294 266.58 56.1342 267.903 59.6664L269.838 64.8194C271.161 68.3516 275.136 72.3272 278.668 73.6498L283.821 75.5852C287.354 76.9077 288.966 80.8028 287.402 84.2382L285.128 89.2461C283.571 92.6814 283.571 98.3022 285.128 101.73L287.402 106.737C288.958 110.173 287.354 114.068 283.821 115.39L278.668 117.326C275.136 118.648 271.161 122.624 269.838 126.156L267.903 131.309C266.58 134.841 262.685 136.454 259.25 134.89L254.242 132.616C250.806 131.059 245.186 131.059 241.758 132.616L236.75 134.89C233.315 136.446 229.42 134.841 228.097 131.309L226.162 126.156C224.839 122.624 220.864 118.648 217.332 117.326L212.179 115.39C208.646 114.068 207.034 110.173 208.598 106.737L210.872 101.73C212.429 98.2942 212.429 92.6734 210.872 89.2461L208.598 84.2382C207.042 80.8028 208.646 76.9077 212.179 75.5852L217.332 73.6498C220.864 72.3272 224.839 68.3516 226.162 64.8194L228.097 59.6664C229.42 56.1342 233.315 54.5214 236.75 56.0858L241.758 58.36Z" fill="#E0CCFC"/>
<g clip-path="url(#clip1_670_1473)">
<path d="M263.508 112.744C264.015 112.744 264.431 112.325 264.431 111.799V111.568C264.431 104.106 255.941 95.4059 248.661 95.4059C255.941 95.4059 264.431 86.7055 264.431 79.2439H264.426V79.0125C264.426 78.4919 264.02 78.0677 263.504 78.0677H233.168C232.652 78.0677 232.246 78.4871 232.246 79.0125V79.697C232.824 82.4589 233.231 88.4552 233.231 95.4059C233.231 102.357 232.829 108.348 232.246 111.115V111.741C232.246 112.262 232.652 112.686 233.168 112.686L263.513 112.744H263.508Z" fill="url(#paint1_linear_670_1473)"/>
<path d="M246.392 84.3585C246.141 83.7727 245.776 83.264 245.318 82.8469C244.867 82.4298 244.318 82.1044 243.684 81.8753C243.058 81.6511 242.363 81.5354 241.617 81.5354C240.871 81.5354 240.168 81.6487 239.542 81.8753C238.913 82.1044 238.364 82.4298 237.906 82.8517C237.45 83.2688 237.09 83.7775 236.838 84.3634C236.587 84.9468 236.457 85.5953 236.457 86.2921C236.457 86.9888 236.587 87.647 236.838 88.2352C237.09 88.8259 237.45 89.3346 237.906 89.7613C238.362 90.1832 238.913 90.5183 239.539 90.7522C240.168 90.9812 240.866 91.0993 241.617 91.0993C242.367 91.0993 243.061 90.986 243.687 90.757C244.32 90.5207 244.872 90.188 245.323 89.7637C245.781 89.3394 246.141 88.8283 246.392 88.2376C246.644 87.647 246.774 86.9936 246.774 86.2945C246.774 85.5953 246.644 84.9516 246.392 84.3658H246.39L246.392 84.3585Z" fill="white"/>
<path d="M245.251 85.2157C245.108 84.8838 244.902 84.5955 244.642 84.3592C244.386 84.1228 244.075 83.9384 243.716 83.8086C243.362 83.6815 242.967 83.616 242.545 83.616C242.122 83.616 241.724 83.6802 241.369 83.8086C241.013 83.9384 240.701 84.1228 240.442 84.3619C240.184 84.5982 239.98 84.8865 239.837 85.2185C239.694 85.5491 239.621 85.9166 239.621 86.3114C239.621 86.7062 239.694 87.0792 239.837 87.4125C239.98 87.7472 240.184 88.0355 240.442 88.2773C240.7 88.5164 241.013 88.7063 241.367 88.8388C241.724 88.9686 242.119 89.0355 242.545 89.0355C242.97 89.0355 243.363 88.9713 243.718 88.8415C244.076 88.7077 244.389 88.5191 244.645 88.2787C244.904 88.0382 245.108 87.7486 245.251 87.4139C245.394 87.0792 245.467 86.709 245.467 86.3128C245.467 85.9166 245.394 85.5518 245.251 85.2198H245.25L245.251 85.2157Z" fill="#222222"/>
</g>
<path d="M385.758 58.36C389.194 59.9164 394.814 59.9164 398.242 58.36L403.25 56.0858C406.685 54.5294 410.58 56.1342 411.903 59.6664L413.838 64.8194C415.161 68.3516 419.136 72.3272 422.668 73.6498L427.821 75.5852C431.354 76.9077 432.966 80.8028 431.402 84.2382L429.128 89.2461C427.571 92.6814 427.571 98.3022 429.128 101.73L431.402 106.737C432.958 110.173 431.354 114.068 427.821 115.39L422.668 117.326C419.136 118.648 415.161 122.624 413.838 126.156L411.903 131.309C410.58 134.841 406.685 136.454 403.25 134.89L398.242 132.616C394.806 131.059 389.186 131.059 385.758 132.616L380.75 134.89C377.315 136.446 373.42 134.841 372.097 131.309L370.162 126.156C368.839 122.624 364.864 118.648 361.332 117.326L356.179 115.39C352.646 114.068 351.034 110.173 352.598 106.737L354.872 101.73C356.429 98.2942 356.429 92.6734 354.872 89.2461L352.598 84.2382C351.042 80.8028 352.646 76.9077 356.179 75.5852L361.332 73.6498C364.864 72.3272 368.839 68.3516 370.162 64.8194L372.097 59.6664C373.42 56.1342 377.315 54.5214 380.75 56.0858L385.758 58.36Z" fill="#E0CCFC"/>
<g clip-path="url(#clip2_670_1473)">
<path d="M407.508 112.744C408.015 112.744 408.431 112.325 408.431 111.799V111.568C408.431 104.106 399.941 95.4059 392.661 95.4059C399.941 95.4059 408.431 86.7055 408.431 79.2439H408.426V79.0125C408.426 78.4919 408.02 78.0677 407.504 78.0677H377.168C376.652 78.0677 376.246 78.4871 376.246 79.0125V79.697C376.824 82.4589 377.231 88.4552 377.231 95.4059C377.231 102.357 376.829 108.348 376.246 111.115V111.741C376.246 112.262 376.652 112.686 377.168 112.686L407.513 112.744H407.508Z" fill="url(#paint2_linear_670_1473)"/>
<path d="M390.392 84.3585C390.141 83.7727 389.776 83.264 389.318 82.8469C388.867 82.4298 388.318 82.1044 387.684 81.8753C387.058 81.6511 386.363 81.5354 385.617 81.5354C384.871 81.5354 384.168 81.6487 383.542 81.8753C382.913 82.1044 382.364 82.4298 381.906 82.8517C381.45 83.2688 381.09 83.7775 380.838 84.3634C380.587 84.9468 380.457 85.5953 380.457 86.2921C380.457 86.9888 380.587 87.647 380.838 88.2352C381.09 88.8259 381.45 89.3346 381.906 89.7613C382.362 90.1832 382.913 90.5183 383.539 90.7522C384.168 90.9812 384.866 91.0993 385.617 91.0993C386.367 91.0993 387.061 90.986 387.687 90.757C388.32 90.5207 388.872 90.188 389.323 89.7637C389.781 89.3394 390.141 88.8283 390.392 88.2376C390.644 87.647 390.774 86.9936 390.774 86.2945C390.774 85.5953 390.644 84.9516 390.392 84.3658H390.39L390.392 84.3585Z" fill="white"/>
<path d="M389.251 85.2157C389.108 84.8838 388.902 84.5955 388.642 84.3592C388.386 84.1228 388.075 83.9384 387.716 83.8086C387.362 83.6815 386.967 83.616 386.545 83.616C386.122 83.616 385.724 83.6802 385.369 83.8086C385.013 83.9384 384.701 84.1228 384.442 84.3619C384.184 84.5982 383.98 84.8865 383.837 85.2185C383.694 85.5491 383.621 85.9166 383.621 86.3114C383.621 86.7062 383.694 87.0792 383.837 87.4125C383.98 87.7472 384.184 88.0355 384.442 88.2773C384.7 88.5164 385.013 88.7063 385.367 88.8388C385.724 88.9686 386.119 89.0355 386.545 89.0355C386.97 89.0355 387.363 88.9713 387.718 88.8415C388.076 88.7077 388.389 88.5191 388.645 88.2787C388.904 88.0382 389.108 87.7486 389.251 87.4139C389.394 87.0792 389.467 86.709 389.467 86.3128C389.467 85.9166 389.394 85.5518 389.251 85.2198H389.25L389.251 85.2157Z" fill="#222222"/>
</g>
<path d="M529.758 58.36C533.194 59.9164 538.814 59.9164 542.242 58.36L547.25 56.0858C550.685 54.5294 554.58 56.1342 555.903 59.6664L557.838 64.8194C559.161 68.3516 563.136 72.3272 566.668 73.6498L571.821 75.5852C575.354 76.9077 576.966 80.8028 575.402 84.2382L573.128 89.2461C571.571 92.6814 571.571 98.3022 573.128 101.73L575.402 106.737C576.958 110.173 575.354 114.068 571.821 115.39L566.668 117.326C563.136 118.648 559.161 122.624 557.838 126.156L555.903 131.309C554.58 134.841 550.685 136.454 547.25 134.89L542.242 132.616C538.806 131.059 533.186 131.059 529.758 132.616L524.75 134.89C521.315 136.446 517.42 134.841 516.097 131.309L514.162 126.156C512.839 122.624 508.864 118.648 505.332 117.326L500.179 115.39C496.646 114.068 495.034 110.173 496.598 106.737L498.872 101.73C500.429 98.2942 500.429 92.6734 498.872 89.2461L496.598 84.2382C495.042 80.8028 496.646 76.9077 500.179 75.5852L505.332 73.6498C508.864 72.3272 512.839 68.3516 514.162 64.8194L516.097 59.6664C517.42 56.1342 521.315 54.5214 524.75 56.0858L529.758 58.36Z" fill="#E0CCFC"/>
<g clip-path="url(#clip3_670_1473)">
<path d="M551.508 112.744C552.015 112.744 552.431 112.325 552.431 111.799V111.568C552.431 104.106 543.941 95.4059 536.661 95.4059C543.941 95.4059 552.431 86.7055 552.431 79.2439H552.426V79.0125C552.426 78.4919 552.02 78.0677 551.504 78.0677H521.168C520.652 78.0677 520.246 78.4871 520.246 79.0125V79.697C520.824 82.4589 521.23 88.4552 521.23 95.4059C521.23 102.357 520.829 108.348 520.246 111.115V111.741C520.246 112.262 520.652 112.686 521.168 112.686L551.513 112.744H551.508Z" fill="url(#paint3_linear_670_1473)"/>
<path d="M534.392 84.3585C534.141 83.7727 533.776 83.264 533.318 82.8469C532.867 82.4298 532.318 82.1044 531.684 81.8753C531.058 81.6511 530.363 81.5354 529.617 81.5354C528.871 81.5354 528.168 81.6487 527.542 81.8753C526.913 82.1044 526.364 82.4298 525.906 82.8517C525.45 83.2688 525.09 83.7775 524.838 84.3634C524.587 84.9468 524.457 85.5953 524.457 86.2921C524.457 86.9888 524.587 87.647 524.838 88.2352C525.09 88.8259 525.45 89.3346 525.906 89.7613C526.362 90.1832 526.913 90.5183 527.539 90.7522C528.168 90.9812 528.866 91.0993 529.617 91.0993C530.367 91.0993 531.061 90.986 531.687 90.757C532.32 90.5207 532.872 90.188 533.323 89.7637C533.781 89.3394 534.141 88.8283 534.392 88.2376C534.644 87.647 534.774 86.9936 534.774 86.2945C534.774 85.5953 534.644 84.9516 534.392 84.3658H534.39L534.392 84.3585Z" fill="white"/>
<path d="M533.251 85.2157C533.108 84.8838 532.902 84.5955 532.642 84.3592C532.386 84.1228 532.075 83.9384 531.716 83.8086C531.362 83.6815 530.967 83.616 530.545 83.616C530.122 83.616 529.724 83.6802 529.369 83.8086C529.013 83.9384 528.701 84.1228 528.442 84.3619C528.184 84.5982 527.98 84.8865 527.837 85.2185C527.694 85.5491 527.621 85.9166 527.621 86.3114C527.621 86.7062 527.694 87.0792 527.837 87.4125C527.98 87.7472 528.184 88.0355 528.442 88.2773C528.7 88.5164 529.013 88.7063 529.367 88.8388C529.724 88.9686 530.119 89.0355 530.545 89.0355C530.97 89.0355 531.363 88.9713 531.718 88.8415C532.076 88.7077 532.389 88.5191 532.645 88.2787C532.904 88.0382 533.108 87.7486 533.251 87.4139C533.394 87.0792 533.467 86.709 533.467 86.3128C533.467 85.9166 533.394 85.5518 533.251 85.2198H533.25L533.251 85.2157Z" fill="#222222"/>
</g>
<g clip-path="url(#clip4_670_1473)">
<path d="M814.746 190.976C817.574 190.976 819.894 188.666 819.894 185.773V184.498C819.894 143.404 772.52 95.4878 731.895 95.4878C772.52 95.4878 819.894 47.5714 819.894 6.47735H819.868V5.20312C819.868 2.33609 817.6 0 814.719 0H645.444C642.563 0 640.295 2.30955 640.295 5.20312V8.97272C643.523 24.1839 645.79 57.2077 645.79 95.4878C645.79 133.768 643.55 166.765 640.295 182.003V185.454C640.295 188.321 642.563 190.657 645.444 190.657L814.773 190.976H814.746Z" fill="url(#paint4_linear_670_1473)"/>
<path d="M719.236 34.6456C717.831 31.4192 715.796 28.6176 713.24 26.3206C710.723 24.0235 707.658 22.2311 704.125 20.9697C700.631 19.7349 696.749 19.0975 692.587 19.0975C688.424 19.0975 684.502 19.7216 681.009 20.9697C677.502 22.2311 674.436 24.0235 671.88 26.3471C669.337 28.6441 667.329 31.4457 665.924 34.6722C664.518 37.8854 663.795 41.457 663.795 45.2943C663.795 49.1315 664.518 52.7563 665.924 55.996C667.329 59.249 669.337 62.0506 671.88 64.4008C674.423 66.7243 677.502 68.5699 680.995 69.8579C684.502 71.1192 688.397 71.7698 692.587 71.7698C696.776 71.7698 700.644 71.1458 704.138 69.8844C707.672 68.5832 710.75 66.7509 713.267 64.414C715.823 62.0772 717.831 59.2623 719.236 56.0093C720.642 52.7563 721.365 49.1581 721.365 45.3076C721.365 41.457 720.642 37.9119 719.236 34.6855H719.223L719.236 34.6456Z" fill="white"/>
<path d="M712.867 39.3667C712.07 37.5384 710.917 35.9508 709.469 34.6492C708.043 33.3476 706.306 32.3318 704.303 31.617C702.324 30.9173 700.124 30.5562 697.765 30.5562C695.406 30.5562 693.184 30.9098 691.204 31.617C689.217 32.3318 687.48 33.3476 686.031 34.6642C684.59 35.9659 683.452 37.5535 682.656 39.3818C681.86 41.2026 681.45 43.2265 681.45 45.401C681.45 47.5754 681.86 49.6294 682.656 51.4653C683.452 53.3087 684.59 54.8962 686.031 56.228C687.472 57.5447 689.217 58.5905 691.197 59.3203C693.184 60.0351 695.391 60.4038 697.765 60.4038C700.139 60.4038 702.331 60.0502 704.311 59.3354C706.313 58.598 708.058 57.5597 709.484 56.2355C710.932 54.9113 712.07 53.3162 712.867 51.4728C713.663 49.6294 714.073 47.5905 714.073 45.4085C714.073 43.2265 713.663 41.2176 712.867 39.3893H712.859L712.867 39.3667Z" fill="#222222"/>
</g>
<path d="M958.773 103.916C963.501 83.5334 950.811 63.1771 930.428 58.4489C910.046 53.7207 889.689 66.4111 884.961 86.7938C880.233 107.176 892.923 127.533 913.306 132.261C933.689 136.989 954.045 124.299 958.773 103.916Z" fill="#ED6A95"/>
<path d="M921.867 69.374C938.435 69.374 952.039 82.0565 953.502 98.2445C953.587 97.2945 953.635 96.3255 953.635 95.347C953.635 77.8005 939.413 63.579 921.867 63.579C904.32 63.579 890.099 77.8005 890.099 95.347C890.099 96.3255 890.146 97.285 890.232 98.2445C891.695 82.0565 905.299 69.374 921.867 69.374Z" fill="#C02A5C"/>
<path d="M921.867 64.2141C939.033 64.2141 952.998 78.1791 952.998 95.3456C952.998 112.512 939.033 126.477 921.867 126.477C904.7 126.477 890.735 112.512 890.735 95.3456C890.735 78.1791 904.7 64.2141 921.867 64.2141ZM921.867 57.4596C900.938 57.4596 883.971 74.4171 883.971 95.3456C883.971 116.274 900.938 133.232 921.857 133.232C942.776 133.232 959.743 116.265 959.743 95.3456C959.743 74.4266 942.795 57.4596 921.867 57.4596Z" fill="#F5ABC4"/>
<path d="M946.32 90.2804V103.52H943.691V97.9801H937.64V103.52H935.02V90.2804H937.64V95.8816H943.691V90.2804H946.32ZM917.113 90.2804H915.994L910.303 103.52H913.053L917.048 93.9574H917.18L921.137 103.52H923.923L918.232 90.2804H917.113ZM923.519 100.62L923.546 100.687C923.733 101.169 924.822 103.702 928.402 103.839C934.142 104.056 934.039 100.392 934.039 99.639C934 99.0321 933.799 98.4462 933.457 97.941C933.115 97.4358 932.643 97.0295 932.09 96.7634C929.939 95.6378 926.275 95.7744 926.275 93.6036C926.275 92.939 926.874 91.9956 928.649 91.9742C930.37 91.942 931.269 93.0462 931.391 93.6733L933.353 93.1025C933.006 92.344 932.269 90.2241 928.557 90.2241C927.897 90.2083 927.239 90.2988 926.608 90.4921C924.305 91.264 923.898 93.0221 923.898 93.8984C923.928 98.969 931.543 97.6504 931.456 100.271C931.426 101.231 930.475 101.992 928.565 101.909C926.584 101.829 925.906 100.625 925.584 99.9231L923.519 100.62ZM904.536 92.1939C906.257 92.1591 907.279 93.0408 907.466 93.6277L909.566 93.0596C909.216 92.3119 908.01 90.3233 904.609 90.1678C898.165 90.1678 897.68 96.147 897.68 96.7526C897.68 103.048 902.409 103.747 904.249 103.831C906.056 103.893 907.865 103.78 909.65 103.493V95.8816H903.002V97.9854H907.154C907.164 97.9854 907.174 97.9893 907.182 97.9963C907.189 98.0032 907.194 98.0128 907.195 98.023V101.713C907.193 101.724 907.189 101.735 907.183 101.744C907.176 101.753 907.167 101.76 907.157 101.764C906.327 101.901 905.485 101.952 904.644 101.917C904.062 101.898 900.414 101.754 900.414 97.0287C900.414 93.9895 901.948 92.2207 904.536 92.2047" fill="#C02A5C"/>
<path d="M946.32 88.7604V102H943.691V96.4601H937.64V102H935.02V88.7604H937.64V94.3616H943.691V88.7604H946.32ZM917.113 88.7604H915.994L910.303 102H913.053L917.048 92.4374H917.18L921.137 102H923.923L918.232 88.7604H917.113ZM923.519 99.0999L923.546 99.1669C923.733 99.6493 924.822 102.182 928.402 102.319C934.142 102.536 934.039 98.8721 934.039 98.119C934 97.5121 933.799 96.9262 933.457 96.421C933.115 95.9158 932.643 95.5095 932.09 95.2433C929.939 94.1177 926.275 94.2544 926.275 92.0836C926.275 91.419 926.874 90.4756 928.649 90.4542C930.37 90.422 931.269 91.5262 931.391 92.1533L933.353 91.5824C933.006 90.824 932.269 88.7041 928.557 88.7041C927.897 88.6883 927.239 88.7788 926.608 88.9721C924.305 89.744 923.898 91.502 923.898 92.3784C923.928 97.449 931.543 96.1304 931.456 98.7515C931.426 99.7109 930.475 100.472 928.565 100.389C926.584 100.309 925.906 99.1052 925.584 98.4031L923.519 99.0999ZM904.536 90.6739C906.257 90.6391 907.279 91.5208 907.466 92.1077L909.566 91.5396C909.216 90.7918 908.01 88.8033 904.609 88.6478C898.165 88.6478 897.68 94.6269 897.68 95.2326C897.68 101.528 902.409 102.227 904.249 102.311C906.056 102.373 907.865 102.26 909.65 101.973V94.3616H903.002V96.4654H907.154C907.164 96.4654 907.174 96.4693 907.182 96.4762C907.189 96.4832 907.194 96.4928 907.195 96.5029V100.193C907.193 100.204 907.189 100.215 907.183 100.224C907.176 100.233 907.167 100.24 907.157 100.244C906.327 100.381 905.485 100.432 904.644 100.397C904.062 100.378 900.414 100.234 900.414 95.5087C900.414 92.4695 901.948 90.7007 904.536 90.6846" fill="white"/>
<path d="M1098.77 103.916C1103.5 83.5334 1090.81 63.1771 1070.43 58.4489C1050.05 53.7207 1029.69 66.4111 1024.96 86.7938C1020.23 107.176 1032.92 127.533 1053.31 132.261C1073.69 136.989 1094.05 124.299 1098.77 103.916Z" fill="#ED6A95"/>
<path d="M1061.87 69.374C1078.43 69.374 1092.04 82.0565 1093.5 98.2445C1093.59 97.2945 1093.63 96.3255 1093.63 95.347C1093.63 77.8005 1079.41 63.579 1061.87 63.579C1044.32 63.579 1030.1 77.8005 1030.1 95.347C1030.1 96.3255 1030.15 97.285 1030.23 98.2445C1031.69 82.0565 1045.3 69.374 1061.87 69.374Z" fill="#C02A5C"/>
<path d="M1061.87 64.2141C1079.03 64.2141 1093 78.1791 1093 95.3456C1093 112.512 1079.03 126.477 1061.87 126.477C1044.7 126.477 1030.74 112.512 1030.74 95.3456C1030.74 78.1791 1044.7 64.2141 1061.87 64.2141ZM1061.87 57.4596C1040.94 57.4596 1023.97 74.4171 1023.97 95.3456C1023.97 116.274 1040.94 133.232 1061.86 133.232C1082.78 133.232 1099.74 116.265 1099.74 95.3456C1099.74 74.4266 1082.8 57.4596 1061.87 57.4596Z" fill="#F5ABC4"/>
<path d="M1086.32 90.2804V103.52H1083.69V97.9801H1077.64V103.52H1075.02V90.2804H1077.64V95.8816H1083.69V90.2804H1086.32ZM1057.11 90.2804H1055.99L1050.3 103.52H1053.05L1057.05 93.9574H1057.18L1061.14 103.52H1063.92L1058.23 90.2804H1057.11ZM1063.52 100.62L1063.55 100.687C1063.73 101.169 1064.82 103.702 1068.4 103.839C1074.14 104.056 1074.04 100.392 1074.04 99.639C1074 99.0321 1073.8 98.4462 1073.46 97.941C1073.11 97.4358 1072.64 97.0295 1072.09 96.7634C1069.94 95.6378 1066.27 95.7744 1066.27 93.6036C1066.27 92.939 1066.87 91.9956 1068.65 91.9742C1070.37 91.942 1071.27 93.0462 1071.39 93.6733L1073.35 93.1025C1073.01 92.344 1072.27 90.2241 1068.56 90.2241C1067.9 90.2083 1067.24 90.2988 1066.61 90.4921C1064.3 91.264 1063.9 93.0221 1063.9 93.8984C1063.93 98.969 1071.54 97.6504 1071.46 100.271C1071.43 101.231 1070.48 101.992 1068.56 101.909C1066.58 101.829 1065.91 100.625 1065.58 99.9231L1063.52 100.62ZM1044.54 92.1939C1046.26 92.1591 1047.28 93.0408 1047.47 93.6277L1049.57 93.0596C1049.22 92.3119 1048.01 90.3233 1044.61 90.1678C1038.17 90.1678 1037.68 96.147 1037.68 96.7526C1037.68 103.048 1042.41 103.747 1044.25 103.831C1046.06 103.893 1047.86 103.78 1049.65 103.493V95.8816H1043V97.9854H1047.15C1047.16 97.9854 1047.17 97.9893 1047.18 97.9963C1047.19 98.0032 1047.19 98.0128 1047.19 98.023V101.713C1047.19 101.724 1047.19 101.735 1047.18 101.744C1047.18 101.753 1047.17 101.76 1047.16 101.764C1046.33 101.901 1045.48 101.952 1044.64 101.917C1044.06 101.898 1040.41 101.754 1040.41 97.0287C1040.41 93.9895 1041.95 92.2207 1044.54 92.2047" fill="#C02A5C"/>
<path d="M1086.32 88.7604V102H1083.69V96.4601H1077.64V102H1075.02V88.7604H1077.64V94.3616H1083.69V88.7604H1086.32ZM1057.11 88.7604H1055.99L1050.3 102H1053.05L1057.05 92.4374H1057.18L1061.14 102H1063.92L1058.23 88.7604H1057.11ZM1063.52 99.0999L1063.55 99.1669C1063.73 99.6493 1064.82 102.182 1068.4 102.319C1074.14 102.536 1074.04 98.8721 1074.04 98.119C1074 97.5121 1073.8 96.9262 1073.46 96.421C1073.11 95.9158 1072.64 95.5095 1072.09 95.2433C1069.94 94.1177 1066.27 94.2544 1066.27 92.0836C1066.27 91.419 1066.87 90.4756 1068.65 90.4542C1070.37 90.422 1071.27 91.5262 1071.39 92.1533L1073.35 91.5824C1073.01 90.824 1072.27 88.7041 1068.56 88.7041C1067.9 88.6883 1067.24 88.7788 1066.61 88.9721C1064.3 89.744 1063.9 91.502 1063.9 92.3784C1063.93 97.449 1071.54 96.1304 1071.46 98.7515C1071.43 99.7109 1070.48 100.472 1068.56 100.389C1066.58 100.309 1065.91 99.1052 1065.58 98.4031L1063.52 99.0999ZM1044.54 90.6739C1046.26 90.6391 1047.28 91.5208 1047.47 92.1077L1049.57 91.5396C1049.22 90.7918 1048.01 88.8033 1044.61 88.6478C1038.17 88.6478 1037.68 94.6269 1037.68 95.2326C1037.68 101.528 1042.41 102.227 1044.25 102.311C1046.06 102.373 1047.86 102.26 1049.65 101.973V94.3616H1043V96.4654H1047.15C1047.16 96.4654 1047.17 96.4693 1047.18 96.4762C1047.19 96.4832 1047.19 96.4928 1047.19 96.5029V100.193C1047.19 100.204 1047.19 100.215 1047.18 100.224C1047.18 100.233 1047.17 100.24 1047.16 100.244C1046.33 100.381 1045.48 100.432 1044.64 100.397C1044.06 100.378 1040.41 100.234 1040.41 95.5087C1040.41 92.4695 1041.95 90.7007 1044.54 90.6846" fill="white"/>
<path d="M1238.77 103.916C1243.5 83.5334 1230.81 63.1771 1210.43 58.4489C1190.05 53.7207 1169.69 66.4111 1164.96 86.7938C1160.23 107.176 1172.92 127.533 1193.31 132.261C1213.69 136.989 1234.05 124.299 1238.77 103.916Z" fill="#ED6A95"/>
<path d="M1201.87 69.374C1218.43 69.374 1232.04 82.0565 1233.5 98.2445C1233.59 97.2945 1233.63 96.3255 1233.63 95.347C1233.63 77.8005 1219.41 63.579 1201.87 63.579C1184.32 63.579 1170.1 77.8005 1170.1 95.347C1170.1 96.3255 1170.15 97.285 1170.23 98.2445C1171.69 82.0565 1185.3 69.374 1201.87 69.374Z" fill="#C02A5C"/>
<path d="M1201.87 64.2141C1219.03 64.2141 1233 78.1791 1233 95.3456C1233 112.512 1219.03 126.477 1201.87 126.477C1184.7 126.477 1170.74 112.512 1170.74 95.3456C1170.74 78.1791 1184.7 64.2141 1201.87 64.2141ZM1201.87 57.4596C1180.94 57.4596 1163.97 74.4171 1163.97 95.3456C1163.97 116.274 1180.94 133.232 1201.86 133.232C1222.78 133.232 1239.74 116.265 1239.74 95.3456C1239.74 74.4266 1222.8 57.4596 1201.87 57.4596Z" fill="#F5ABC4"/>
<path d="M1226.32 90.2804V103.52H1223.69V97.9801H1217.64V103.52H1215.02V90.2804H1217.64V95.8816H1223.69V90.2804H1226.32ZM1197.11 90.2804H1195.99L1190.3 103.52H1193.05L1197.05 93.9574H1197.18L1201.14 103.52H1203.92L1198.23 90.2804H1197.11ZM1203.52 100.62L1203.55 100.687C1203.73 101.169 1204.82 103.702 1208.4 103.839C1214.14 104.056 1214.04 100.392 1214.04 99.639C1214 99.0321 1213.8 98.4462 1213.46 97.941C1213.11 97.4358 1212.64 97.0295 1212.09 96.7634C1209.94 95.6378 1206.27 95.7744 1206.27 93.6036C1206.27 92.939 1206.87 91.9956 1208.65 91.9742C1210.37 91.942 1211.27 93.0462 1211.39 93.6733L1213.35 93.1025C1213.01 92.344 1212.27 90.2241 1208.56 90.2241C1207.9 90.2083 1207.24 90.2988 1206.61 90.4921C1204.3 91.264 1203.9 93.0221 1203.9 93.8984C1203.93 98.969 1211.54 97.6504 1211.46 100.271C1211.43 101.231 1210.48 101.992 1208.56 101.909C1206.58 101.829 1205.91 100.625 1205.58 99.9231L1203.52 100.62ZM1184.54 92.1939C1186.26 92.1591 1187.28 93.0408 1187.47 93.6277L1189.57 93.0596C1189.22 92.3119 1188.01 90.3233 1184.61 90.1678C1178.17 90.1678 1177.68 96.147 1177.68 96.7526C1177.68 103.048 1182.41 103.747 1184.25 103.831C1186.06 103.893 1187.86 103.78 1189.65 103.493V95.8816H1183V97.9854H1187.15C1187.16 97.9854 1187.17 97.9893 1187.18 97.9963C1187.19 98.0032 1187.19 98.0128 1187.19 98.023V101.713C1187.19 101.724 1187.19 101.735 1187.18 101.744C1187.18 101.753 1187.17 101.76 1187.16 101.764C1186.33 101.901 1185.48 101.952 1184.64 101.917C1184.06 101.898 1180.41 101.754 1180.41 97.0287C1180.41 93.9895 1181.95 92.2207 1184.54 92.2047" fill="#C02A5C"/>
<path d="M1226.32 88.7604V102H1223.69V96.4601H1217.64V102H1215.02V88.7604H1217.64V94.3616H1223.69V88.7604H1226.32ZM1197.11 88.7604H1195.99L1190.3 102H1193.05L1197.05 92.4374H1197.18L1201.14 102H1203.92L1198.23 88.7604H1197.11ZM1203.52 99.0999L1203.55 99.1669C1203.73 99.6493 1204.82 102.182 1208.4 102.319C1214.14 102.536 1214.04 98.8721 1214.04 98.119C1214 97.5121 1213.8 96.9262 1213.46 96.421C1213.11 95.9158 1212.64 95.5095 1212.09 95.2433C1209.94 94.1177 1206.27 94.2544 1206.27 92.0836C1206.27 91.419 1206.87 90.4756 1208.65 90.4542C1210.37 90.422 1211.27 91.5262 1211.39 92.1533L1213.35 91.5824C1213.01 90.824 1212.27 88.7041 1208.56 88.7041C1207.9 88.6883 1207.24 88.7788 1206.61 88.9721C1204.3 89.744 1203.9 91.502 1203.9 92.3784C1203.93 97.449 1211.54 96.1304 1211.46 98.7515C1211.43 99.7109 1210.48 100.472 1208.56 100.389C1206.58 100.309 1205.91 99.1052 1205.58 98.4031L1203.52 99.0999ZM1184.54 90.6739C1186.26 90.6391 1187.28 91.5208 1187.47 92.1077L1189.57 91.5396C1189.22 90.7918 1188.01 88.8033 1184.61 88.6478C1178.17 88.6478 1177.68 94.6269 1177.68 95.2326C1177.68 101.528 1182.41 102.227 1184.25 102.311C1186.06 102.373 1187.86 102.26 1189.65 101.973V94.3616H1183V96.4654H1187.15C1187.16 96.4654 1187.17 96.4693 1187.18 96.4762C1187.19 96.4832 1187.19 96.4928 1187.19 96.5029V100.193C1187.19 100.204 1187.19 100.215 1187.18 100.224C1187.18 100.233 1187.17 100.24 1187.16 100.244C1186.33 100.381 1185.48 100.432 1184.64 100.397C1184.06 100.378 1180.41 100.234 1180.41 95.5087C1180.41 92.4695 1181.95 90.7007 1184.54 90.6846" fill="white"/>
<path d="M1378.77 103.916C1383.5 83.5334 1370.81 63.1771 1350.43 58.4489C1330.05 53.7207 1309.69 66.4111 1304.96 86.7938C1300.23 107.176 1312.92 127.533 1333.31 132.261C1353.69 136.989 1374.05 124.299 1378.77 103.916Z" fill="#ED6A95"/>
<path d="M1341.87 69.374C1358.43 69.374 1372.04 82.0565 1373.5 98.2445C1373.59 97.2945 1373.63 96.3255 1373.63 95.347C1373.63 77.8005 1359.41 63.579 1341.87 63.579C1324.32 63.579 1310.1 77.8005 1310.1 95.347C1310.1 96.3255 1310.15 97.285 1310.23 98.2445C1311.69 82.0565 1325.3 69.374 1341.87 69.374Z" fill="#C02A5C"/>
<path d="M1341.87 64.2141C1359.03 64.2141 1373 78.1791 1373 95.3456C1373 112.512 1359.03 126.477 1341.87 126.477C1324.7 126.477 1310.74 112.512 1310.74 95.3456C1310.74 78.1791 1324.7 64.2141 1341.87 64.2141ZM1341.87 57.4596C1320.94 57.4596 1303.97 74.4171 1303.97 95.3456C1303.97 116.274 1320.94 133.232 1341.86 133.232C1362.78 133.232 1379.74 116.265 1379.74 95.3456C1379.74 74.4266 1362.8 57.4596 1341.87 57.4596Z" fill="#F5ABC4"/>
<path d="M1366.32 90.2804V103.52H1363.69V97.9801H1357.64V103.52H1355.02V90.2804H1357.64V95.8816H1363.69V90.2804H1366.32ZM1337.11 90.2804H1335.99L1330.3 103.52H1333.05L1337.05 93.9574H1337.18L1341.14 103.52H1343.92L1338.23 90.2804H1337.11ZM1343.52 100.62L1343.55 100.687C1343.73 101.169 1344.82 103.702 1348.4 103.839C1354.14 104.056 1354.04 100.392 1354.04 99.639C1354 99.0321 1353.8 98.4462 1353.46 97.941C1353.11 97.4358 1352.64 97.0295 1352.09 96.7634C1349.94 95.6378 1346.27 95.7744 1346.27 93.6036C1346.27 92.939 1346.87 91.9956 1348.65 91.9742C1350.37 91.942 1351.27 93.0462 1351.39 93.6733L1353.35 93.1025C1353.01 92.344 1352.27 90.2241 1348.56 90.2241C1347.9 90.2083 1347.24 90.2988 1346.61 90.4921C1344.3 91.264 1343.9 93.0221 1343.9 93.8984C1343.93 98.969 1351.54 97.6504 1351.46 100.271C1351.43 101.231 1350.48 101.992 1348.56 101.909C1346.58 101.829 1345.91 100.625 1345.58 99.9231L1343.52 100.62ZM1324.54 92.1939C1326.26 92.1591 1327.28 93.0408 1327.47 93.6277L1329.57 93.0596C1329.22 92.3119 1328.01 90.3233 1324.61 90.1678C1318.17 90.1678 1317.68 96.147 1317.68 96.7526C1317.68 103.048 1322.41 103.747 1324.25 103.831C1326.06 103.893 1327.86 103.78 1329.65 103.493V95.8816H1323V97.9854H1327.15C1327.16 97.9854 1327.17 97.9893 1327.18 97.9963C1327.19 98.0032 1327.19 98.0128 1327.19 98.023V101.713C1327.19 101.724 1327.19 101.735 1327.18 101.744C1327.18 101.753 1327.17 101.76 1327.16 101.764C1326.33 101.901 1325.48 101.952 1324.64 101.917C1324.06 101.898 1320.41 101.754 1320.41 97.0287C1320.41 93.9895 1321.95 92.2207 1324.54 92.2047" fill="#C02A5C"/>
<path d="M1366.32 88.7604V102H1363.69V96.4601H1357.64V102H1355.02V88.7604H1357.64V94.3616H1363.69V88.7604H1366.32ZM1337.11 88.7604H1335.99L1330.3 102H1333.05L1337.05 92.4374H1337.18L1341.14 102H1343.92L1338.23 88.7604H1337.11ZM1343.52 99.0999L1343.55 99.1669C1343.73 99.6493 1344.82 102.182 1348.4 102.319C1354.14 102.536 1354.04 98.8721 1354.04 98.119C1354 97.5121 1353.8 96.9262 1353.46 96.421C1353.11 95.9158 1352.64 95.5095 1352.09 95.2433C1349.94 94.1177 1346.27 94.2544 1346.27 92.0836C1346.27 91.419 1346.87 90.4756 1348.65 90.4542C1350.37 90.422 1351.27 91.5262 1351.39 92.1533L1353.35 91.5824C1353.01 90.824 1352.27 88.7041 1348.56 88.7041C1347.9 88.6883 1347.24 88.7788 1346.61 88.9721C1344.3 89.744 1343.9 91.502 1343.9 92.3784C1343.93 97.449 1351.54 96.1304 1351.46 98.7515C1351.43 99.7109 1350.48 100.472 1348.56 100.389C1346.58 100.309 1345.91 99.1052 1345.58 98.4031L1343.52 99.0999ZM1324.54 90.6739C1326.26 90.6391 1327.28 91.5208 1327.47 92.1077L1329.57 91.5396C1329.22 90.7918 1328.01 88.8033 1324.61 88.6478C1318.17 88.6478 1317.68 94.6269 1317.68 95.2326C1317.68 101.528 1322.41 102.227 1324.25 102.311C1326.06 102.373 1327.86 102.26 1329.65 101.973V94.3616H1323V96.4654H1327.15C1327.16 96.4654 1327.17 96.4693 1327.18 96.4762C1327.19 96.4832 1327.19 96.4928 1327.19 96.5029V100.193C1327.19 100.204 1327.19 100.215 1327.18 100.224C1327.18 100.233 1327.17 100.24 1327.16 100.244C1326.33 100.381 1325.48 100.432 1324.64 100.397C1324.06 100.378 1320.41 100.234 1320.41 95.5087C1320.41 92.4695 1321.95 90.7007 1324.54 90.6846" fill="white"/>
<path d="M1518.77 103.916C1523.5 83.5334 1510.81 63.1771 1490.43 58.4489C1470.05 53.7207 1449.69 66.4111 1444.96 86.7938C1440.23 107.176 1452.92 127.533 1473.31 132.261C1493.69 136.989 1514.05 124.299 1518.77 103.916Z" fill="#ED6A95"/>
<defs>
<linearGradient id="paint0_linear_670_1473" x1="109.087" y1="78.2943" x2="99.5961" y2="113.206" gradientUnits="userSpaceOnUse">
<stop stop-color="#CD65FD"/>
<stop offset="0.31" stop-color="#A53EF5"/>
<stop offset="1" stop-color="#6B0AE5"/>
</linearGradient>
<linearGradient id="paint1_linear_670_1473" x1="253.087" y1="78.2943" x2="243.596" y2="113.206" gradientUnits="userSpaceOnUse">
<stop stop-color="#CD65FD"/>
<stop offset="0.31" stop-color="#A53EF5"/>
<stop offset="1" stop-color="#6B0AE5"/>
</linearGradient>
<linearGradient id="paint2_linear_670_1473" x1="397.087" y1="78.2943" x2="387.596" y2="113.206" gradientUnits="userSpaceOnUse">
<stop stop-color="#CD65FD"/>
<stop offset="0.31" stop-color="#A53EF5"/>
<stop offset="1" stop-color="#6B0AE5"/>
</linearGradient>
<linearGradient id="paint3_linear_670_1473" x1="541.087" y1="78.2943" x2="531.596" y2="113.206" gradientUnits="userSpaceOnUse">
<stop stop-color="#CD65FD"/>
<stop offset="0.31" stop-color="#A53EF5"/>
<stop offset="1" stop-color="#6B0AE5"/>
</linearGradient>
<linearGradient id="paint4_linear_670_1473" x1="756.595" y1="1.24768" x2="704.913" y2="193.862" gradientUnits="userSpaceOnUse">
<stop stop-color="#CD65FD"/>
<stop offset="0.31" stop-color="#A53EF5"/>
<stop offset="1" stop-color="#6B0AE5"/>
</linearGradient>
<clipPath id="clip0_670_1473">
<rect width="32.257" height="34.6763" fill="white" transform="translate(88.1929 78.0677)"/>
</clipPath>
<clipPath id="clip1_670_1473">
<rect width="32.257" height="34.6763" fill="white" transform="translate(232.193 78.0677)"/>
</clipPath>
<clipPath id="clip2_670_1473">
<rect width="32.257" height="34.6763" fill="white" transform="translate(376.193 78.0677)"/>
</clipPath>
<clipPath id="clip3_670_1473">
<rect width="32.257" height="34.6763" fill="white" transform="translate(520.193 78.0677)"/>
</clipPath>
<clipPath id="clip4_670_1473">
<rect width="180" height="190.976" fill="white" transform="translate(640)"/>
</clipPath>
</defs>
</svg>
