<svg width="190" height="20" viewBox="0 0 190 20" fill="none" xmlns="http://www.w3.org/2000/svg">
<g clip-path="url(#clip0_58_3944)">
<path d="M78.7369 5.83219C78.2171 4.62836 77.4738 3.58413 76.5299 2.7223C75.5996 1.86047 74.4597 1.18103 73.1464 0.706794C71.8422 0.237118 70.383 0 68.8235 0C67.264 0 65.7912 0.237118 64.487 0.706794C63.1829 1.17647 62.0429 1.85591 61.1035 2.7223C60.1642 3.58413 59.4254 4.63292 58.9056 5.83219C58.3858 7.03602 58.1213 8.37665 58.1213 9.8176C58.1213 11.2586 58.3858 12.6174 58.9056 13.8349C59.4254 15.0479 60.1687 16.1012 61.0944 16.9813C62.0337 17.8523 63.1737 18.5408 64.4779 19.0287C65.782 19.5075 67.2504 19.7538 68.8144 19.7538C70.3785 19.7538 71.8422 19.5075 73.1418 19.0378C74.4551 18.5499 75.5951 17.8614 76.5253 16.9904C77.4692 16.1195 78.2125 15.057 78.7323 13.844C79.2522 12.622 79.5167 11.2722 79.5167 9.82672C79.5167 8.38121 79.2522 7.04514 78.7323 5.84131V5.83219H78.7369ZM74.5554 12.1979C74.2499 12.8956 73.8121 13.5066 73.2695 14.0036C72.7223 14.4916 72.0657 14.8837 71.3087 15.1528C70.5518 15.4218 69.7173 15.5632 68.819 15.5632C67.9207 15.5632 67.0816 15.4218 66.3156 15.1528C65.5677 14.8837 64.9111 14.5007 64.3548 14.0036C63.8167 13.5066 63.3835 12.9047 63.078 12.1979C62.7816 11.5002 62.6174 10.6977 62.6174 9.8176C62.6174 8.93753 62.7725 8.13497 63.078 7.44642C63.3835 6.75787 63.8213 6.16507 64.3548 5.69539C64.9065 5.20748 65.5632 4.83356 66.3156 4.5782C67.0816 4.31829 67.9252 4.18605 68.819 4.18605C69.7127 4.18605 70.5563 4.31829 71.3178 4.5782C72.0748 4.829 72.7314 5.20748 73.2786 5.69539C73.8258 6.17419 74.2499 6.75787 74.5554 7.45554C74.8609 8.1441 75.0251 8.94665 75.0251 9.82672C75.0251 10.7068 74.87 11.5093 74.5554 12.207V12.1979Z" fill="#333333"/>
<path d="M13.4063 8.31737C15.0251 8.31737 16.8947 10.1733 17.0087 11.8331C17.0087 11.8833 17.0178 11.938 17.0178 11.9881V12.0383C17.0178 12.1569 16.922 12.2526 16.808 12.2526H4.59644V19.0424C4.59644 19.2841 4.40948 19.4802 4.17237 19.4802H0.528956C0.528956 19.4802 0.528956 19.4802 0.524396 19.4802C0.159599 19.4847 0 19.1701 0 18.8509C0 18.5727 0.0501596 18.2946 0.104879 18.0164C0.132239 17.8659 0.159599 17.7155 0.177839 17.565C0.323757 16.4615 0.396717 15.3443 0.455996 14.2362C0.487916 13.6161 0.506156 12.9913 0.524396 12.3666V7.3689C0.506156 6.74419 0.487916 6.12403 0.455996 5.49932C0.401277 4.38669 0.323757 3.27405 0.177839 2.17054C0.159599 2.02006 0.132239 1.86959 0.104879 1.71911C0.0501596 1.43639 0 1.15823 0 0.880073C0 0.560875 0.159599 0.246238 0.524396 0.246238H16.8035C16.9266 0.246238 17.0269 0.346557 17.0269 0.474236V0.528956C17.0269 0.565435 17.0223 0.606475 17.0178 0.642955C16.9357 2.39398 14.9521 4.38213 13.2376 4.39125H4.59644V8.32193H13.4109" fill="#333333"/>
<path d="M97.378 8.89193H97.3689C96.9859 7.9161 96.4478 7.0953 95.7592 6.44323C95.0798 5.79115 94.2499 5.30324 93.3197 4.97948C93.0461 4.88372 92.7588 4.8062 92.4669 4.73324C91.14 4.4186 89.6535 4.40036 88.135 4.73324C88.0164 4.7606 87.8979 4.77884 87.7793 4.81076C87.1227 4.97492 86.4341 5.24852 85.7273 5.61332V5.3306C85.7182 5.02964 85.5632 4.74236 85.2257 4.73324H81.9973C81.9973 4.73324 81.9836 4.73324 81.9745 4.73324H81.8742C81.596 4.73324 81.4729 4.97492 81.4729 5.22116C81.4729 5.24396 81.4729 5.27132 81.4774 5.29412C81.4911 5.59964 81.5686 5.90515 81.6097 6.20611C81.7191 7.05426 81.7784 7.90698 81.824 8.75513C81.8787 9.86776 81.9015 10.985 81.9015 12.0976C81.9015 13.2148 81.8787 14.3274 81.824 15.44C81.783 16.2928 81.7237 17.1455 81.6097 17.9891C81.5686 18.29 81.4911 18.5955 81.4774 18.9011C81.4774 18.9238 81.4729 18.9512 81.4729 18.974C81.4729 19.2202 81.596 19.4619 81.8742 19.4619H81.9745C81.9745 19.4619 81.9882 19.4619 81.9927 19.4619H85.2075C85.5312 19.4619 85.6954 19.2066 85.7228 18.9238V9.87232C85.9462 9.67168 86.1924 9.48928 86.466 9.32513C86.7898 9.12449 87.1227 8.95121 87.4647 8.81897C87.8158 8.67761 88.1715 8.57729 88.5317 8.49521C89.5805 8.28545 90.5426 8.38121 91.327 8.68673C91.8286 8.86913 92.2572 9.15641 92.6038 9.52576C92.9549 9.88144 93.2285 10.3374 93.4154 10.8846C93.6115 11.4273 93.7118 12.0611 93.7118 12.7679V18.8509C93.7164 19.1199 93.8395 19.3844 94.104 19.4482C94.1085 19.4482 94.1131 19.4482 94.1177 19.4482C94.1313 19.4482 94.145 19.4482 94.1587 19.4528H97.5148C97.5148 19.4528 97.5422 19.4528 97.5513 19.4528C97.5559 19.4528 97.565 19.4528 97.5695 19.4528C97.8249 19.389 97.948 19.1382 97.9572 18.8737V12.207C97.9572 10.9622 97.7611 9.83584 97.378 8.88737V8.89193Z" fill="#333333"/>
<path d="M59.4847 18.3265C59.0059 17.8523 58.2809 16.9767 57.9161 16.2335C57.8614 16.124 57.8021 15.9644 57.679 15.9143C57.6106 15.8869 57.5376 15.8915 57.4692 15.9143C57.3507 15.9508 57.2367 15.9872 57.1227 16.0192C56.8263 16.1058 56.5344 16.1788 56.1833 16.2563C54.1997 16.694 51.6917 16.3794 49.9772 15.2166C47.6151 13.6206 48.6913 11.1719 47.7884 8.88737C47.5239 8.20793 47.1728 7.60602 46.7579 7.08162C46.58 6.85363 46.3931 6.63475 46.1879 6.44323C45.5084 5.79115 44.6785 5.30324 43.7483 4.97948C42.8272 4.6466 41.8149 4.48244 40.7387 4.48244C39.9225 4.48244 39.0698 4.59644 38.2079 4.81532C37.5513 4.97948 36.8628 5.25308 36.1514 5.61787V5.38988C36.1514 5.07068 35.9918 4.75604 35.627 4.75604H32.321C32.1797 4.75604 32.0657 4.829 31.9881 4.92932C31.9836 4.93844 31.9745 4.94756 31.9699 4.95668C31.9517 4.98404 31.938 5.0114 31.9243 5.03876C31.8833 5.1254 31.8514 5.2166 31.8422 5.31692C31.8468 5.45372 31.8696 5.59508 31.8924 5.73643C31.9198 5.90059 31.9517 6.06931 31.9745 6.22891C32.0839 7.07706 32.1432 7.92978 32.1888 8.78249C32.2435 9.89968 32.2663 11.0123 32.2663 12.1295C32.2663 12.7588 32.2572 13.3881 32.2389 14.0128L32.1295 14.1268L31.8924 14.3365C31.7146 14.5098 31.5002 14.6831 31.2631 14.8427C30.9667 15.0433 30.6475 15.2166 30.3101 15.358C29.9772 15.4993 29.6124 15.6042 29.2294 15.6908C28.8646 15.7684 28.4861 15.814 28.1304 15.814C27.3552 15.814 26.7077 15.7182 26.197 15.5358C25.7182 15.3534 25.326 15.0935 25.0388 14.7697C24.756 14.446 24.5554 14.0538 24.4323 13.6024C24.3046 13.1145 24.2362 12.5581 24.2362 11.9562V5.38532C24.2362 5.06612 24.0721 4.75604 23.7118 4.75604H20.5107C20.1505 4.75604 19.9863 5.07068 19.9863 5.38988V12.4533C19.9863 13.5796 20.1231 14.6056 20.3967 15.4948C20.6794 16.4022 21.1218 17.1865 21.7282 17.8249C22.3438 18.4542 23.1281 18.933 24.0721 19.2613C25.0023 19.585 26.1195 19.7401 27.4054 19.7401C28.1988 19.7401 29.0424 19.6261 29.9134 19.3981C30.57 19.2248 31.2312 18.9649 31.8878 18.6229C31.8696 18.7323 31.8513 18.8372 31.8468 18.9466C31.8696 19.2339 32.0246 19.4984 32.3438 19.5075H32.4715C32.4715 19.5075 32.4806 19.5075 32.4852 19.5075H35.7182C35.9553 19.5075 36.1423 19.316 36.1423 19.0698V9.89968C36.3657 9.69904 36.612 9.51664 36.8764 9.35705C37.2002 9.14729 37.5331 8.98313 37.8751 8.85089C38.2307 8.70953 38.591 8.60465 38.9467 8.52713C39.3023 8.45873 39.6626 8.41313 40.0046 8.41313C40.643 8.41313 41.2312 8.51801 41.7328 8.70953C42.2435 8.90105 42.6721 9.17921 43.0096 9.54856C43.3653 9.91336 43.6389 10.3694 43.8167 10.9074C44.2271 12.093 44.0401 13.3561 44.3867 14.56C45.1208 17.0543 47.1136 18.6503 49.4665 19.4163C50.6338 19.7994 52.0064 19.9909 53.5385 19.9909C55.5632 19.9909 57.6881 19.731 59.4756 18.7551C59.6762 18.6457 59.6443 18.4815 59.4756 18.3128L59.4847 18.3265Z" fill="#333333"/>
<path d="M114.423 15.6179C114.423 15.6179 114.464 15.6179 114.482 15.627C114.464 15.6224 114.446 15.6179 114.423 15.6179Z" fill="#333333"/>
<path d="M114.268 15.6361H114.25C114.25 15.6361 114.273 15.6361 114.286 15.6361C114.282 15.6361 114.273 15.6361 114.268 15.6361Z" fill="#333333"/>
<path d="M114.332 15.6224C114.332 15.6224 114.314 15.6224 114.309 15.627C114.323 15.627 114.337 15.627 114.355 15.6224C114.35 15.6224 114.341 15.6224 114.337 15.6224H114.332Z" fill="#333333"/>
<path d="M114.295 15.627C114.295 15.627 114.286 15.627 114.282 15.627C114.291 15.627 114.3 15.627 114.305 15.6224H114.295V15.627Z" fill="#333333"/>
<path d="M114.355 15.6224C114.378 15.6224 114.4 15.6224 114.428 15.6224C114.405 15.6224 114.382 15.6224 114.355 15.6224Z" fill="#333333"/>
<path d="M114.501 15.6316C114.501 15.6316 114.492 15.6316 114.482 15.6316C114.496 15.6316 114.505 15.6407 114.519 15.6498C114.51 15.6498 114.505 15.6407 114.496 15.6361L114.501 15.6316Z" fill="#333333"/>
<path d="M117.136 12.7497C117.1 11.7738 116.908 10.8436 116.548 9.98176V9.96352C116.156 9.00593 115.577 8.15777 114.834 7.45098C114.09 6.74419 113.178 6.18787 112.125 5.78659C111.076 5.3762 109.872 5.17556 108.554 5.17556C107.237 5.17556 106.033 5.3762 104.984 5.77747C103.944 6.17875 103.051 6.71683 102.335 7.40082C101.61 8.07114 101.049 8.86457 100.666 9.75376C100.283 10.6338 100.087 11.5686 100.087 12.5353C100.087 13.575 100.292 14.56 100.693 15.4537C101.094 16.3611 101.705 17.1546 102.499 17.8249C103.292 18.4861 104.282 19.0196 105.458 19.4026C106.626 19.7857 107.998 19.9772 109.53 19.9772C110.137 19.9772 110.716 19.9498 111.254 19.8997C111.806 19.8495 112.335 19.7583 112.832 19.658C113.333 19.5531 113.821 19.4118 114.282 19.2476C114.587 19.1382 114.888 19.015 115.189 18.8828C115.344 18.8144 115.499 18.746 115.654 18.6731C115.855 18.5819 116.056 18.4907 116.252 18.3812C116.448 18.2763 116.411 18.1167 116.252 17.9571C115.791 17.5011 115.089 16.6575 114.738 15.9416C114.701 15.8641 114.656 15.7638 114.592 15.6954C114.587 15.6863 114.583 15.6772 114.574 15.6726C114.56 15.6589 114.542 15.6589 114.528 15.6498C114.514 15.6452 114.505 15.6361 114.492 15.6316C114.473 15.627 114.451 15.6224 114.432 15.6224C114.41 15.6224 114.387 15.6224 114.359 15.6224C114.346 15.6224 114.327 15.6224 114.314 15.627C114.305 15.627 114.296 15.627 114.291 15.6316C114.277 15.6316 114.268 15.6407 114.254 15.6407L114.118 15.6908C113.785 15.8094 113.438 15.9188 113.087 16.0146C112.777 16.1012 112.462 16.1833 112.143 16.2563C110.625 16.58 109.006 16.5618 107.761 16.3019C107.141 16.1605 106.585 15.969 106.106 15.7364C105.636 15.4993 105.244 15.212 104.938 14.8928C104.715 14.6557 104.537 14.3958 104.4 14.1268H116.648C116.945 14.1176 117.1 13.8942 117.141 13.6343C117.15 13.5887 117.155 13.5385 117.155 13.4929V13.0643C117.155 12.9594 117.145 12.8591 117.141 12.7542L117.136 12.7497ZM104.4 10.9485L104.391 10.9576C104.501 10.7205 104.637 10.4879 104.815 10.269C105.062 9.96352 105.385 9.68536 105.759 9.43913C106.142 9.20201 106.585 9.00137 107.1 8.86457C107.601 8.72321 108.181 8.64569 108.805 8.64569C109.384 8.64569 109.932 8.71409 110.415 8.84633C110.898 8.98769 111.327 9.17009 111.692 9.41176C112.047 9.63976 112.358 9.91792 112.595 10.2326C112.772 10.4606 112.918 10.6931 113.019 10.9485H104.391H104.4Z" fill="#333333"/>
</g>
<g clip-path="url(#clip1_58_3944)">
<path d="M137.258 12.2586C137.499 11.582 137.621 10.8283 137.621 10.0247C137.621 9.16655 137.499 8.39014 137.254 7.70908C137.013 7.04618 136.645 6.47863 136.159 6.02005C135.669 5.55692 135.038 5.19823 134.284 4.95305C133.517 4.69879 132.591 4.57166 131.533 4.57166H124.332V19.7866H126.515V15.5549L131.551 15.564C132.604 15.564 133.526 15.4232 134.289 15.1417C135.042 14.8648 135.673 14.4788 136.164 13.993C136.654 13.5072 137.022 12.9215 137.258 12.2586ZM135.051 11.4277C134.897 11.8636 134.656 12.2404 134.339 12.5446C134.025 12.8488 133.63 13.0849 133.172 13.2484C132.722 13.4073 132.196 13.489 131.605 13.489H126.515V6.66478H131.605C132.799 6.66478 133.717 6.96445 134.339 7.5547C134.965 8.1495 135.283 8.98039 135.283 10.0247C135.283 10.5332 135.206 11.0054 135.056 11.4277H135.051Z" fill="#0A0A0A"/>
<path d="M150.952 16.4222C151.247 15.7138 151.397 14.9465 151.397 14.1338C151.397 13.3211 151.247 12.5537 150.952 11.8454C150.657 11.1417 150.23 10.5151 149.685 9.98839C149.136 9.46171 148.464 9.03491 147.683 8.7307C146.902 8.42195 146.003 8.26758 145.022 8.26758C144.042 8.26758 143.143 8.42195 142.362 8.7307C141.581 9.03945 140.909 9.46171 140.359 9.98839C139.814 10.5151 139.388 11.1417 139.093 11.8454C138.797 12.5537 138.648 13.3211 138.648 14.1338C138.648 14.9465 138.797 15.7138 139.093 16.4222C139.388 17.1259 139.814 17.7525 140.359 18.2792C140.904 18.8059 141.581 19.2327 142.362 19.5369C143.143 19.8456 144.042 20 145.022 20C146.003 20 146.902 19.8456 147.683 19.5369C148.464 19.2281 149.136 18.8059 149.685 18.2792C150.23 17.7525 150.657 17.1259 150.952 16.4222ZM148.982 15.6412C148.791 16.1179 148.505 16.5447 148.137 16.908C147.769 17.2712 147.32 17.5618 146.798 17.7707C146.275 17.9795 145.681 18.0885 145.022 18.0885C144.364 18.0885 143.769 17.9841 143.247 17.7707C142.725 17.5618 142.275 17.2712 141.908 16.908C141.54 16.5447 141.258 16.1225 141.063 15.6457C140.872 15.1735 140.777 14.665 140.777 14.1383C140.777 13.6116 140.872 13.1031 141.063 12.6264C141.254 12.1451 141.54 11.7183 141.908 11.3551C142.275 10.9918 142.725 10.7012 143.247 10.4924C143.769 10.2835 144.364 10.1746 145.022 10.1746C145.681 10.1746 146.275 10.279 146.798 10.4924C147.32 10.7012 147.769 10.9918 148.137 11.3551C148.505 11.7183 148.786 12.1451 148.982 12.6264C149.172 13.1031 149.268 13.6116 149.268 14.1383C149.268 14.665 149.172 15.1735 148.982 15.6457V15.6412Z" fill="#0A0A0A"/>
<path d="M155.052 8.48096H153.063V19.7866H155.052V8.48096Z" fill="#0A0A0A"/>
<path d="M152.754 4.39002C152.691 4.53986 152.659 4.69877 152.659 4.87585C152.659 5.05292 152.691 5.20276 152.754 5.34805C152.818 5.49788 152.904 5.62501 153.027 5.73853C153.145 5.85204 153.29 5.94284 153.463 6.01095C153.817 6.14716 154.325 6.14716 154.666 6.01095C154.838 5.94284 154.984 5.85204 155.102 5.73853C155.22 5.62501 155.311 5.49788 155.37 5.34805C155.433 5.19822 155.465 5.04384 155.465 4.87131C155.465 4.69877 155.433 4.53532 155.37 4.38548C155.306 4.23565 155.22 4.11306 155.102 4.00409C154.984 3.89512 154.834 3.80431 154.661 3.7362C154.489 3.6681 154.284 3.63177 154.057 3.63177C153.83 3.63177 153.635 3.6681 153.458 3.7362C153.286 3.80431 153.136 3.89512 153.018 4.00409C152.9 4.11306 152.813 4.24019 152.75 4.38548L152.754 4.39002Z" fill="#0A0A0A"/>
<path d="M161.204 10.6013C161.522 10.4697 161.849 10.3607 162.176 10.288C163.143 10.0746 164.056 10.1745 164.805 10.4878C165.304 10.6967 165.736 11.0009 166.085 11.4004C166.43 11.7909 166.703 12.2767 166.884 12.8443C167.061 13.3982 167.152 14.0339 167.152 14.724V19.7866H169.132V14.2337C169.132 13.2393 168.991 12.3585 168.719 11.6093C168.446 10.8692 168.069 10.2426 167.593 9.75227C167.12 9.26191 166.548 8.88959 165.899 8.63987C164.737 8.19491 163.338 8.12226 161.899 8.52182C161.277 8.69435 160.614 9.0031 159.924 9.43898L159.365 9.78859V8.47187H157.377V19.7775H159.365V11.8863L159.465 11.7818C159.706 11.5276 159.983 11.296 160.278 11.0962C160.573 10.8965 160.882 10.7285 161.2 10.5922L161.204 10.6013Z" fill="#0A0A0A"/>
<path d="M177.554 8.48098H174.939V4.73969H172.945V8.48098H170.33V10.0202H172.945V19.7866H174.939V10.0202H177.554V8.48098Z" fill="#0A0A0A"/>
<path d="M189.396 17.5255C189.632 17.0351 189.754 16.4948 189.754 15.9182C189.754 15.4732 189.682 15.0646 189.541 14.6923C189.4 14.329 189.191 14.0112 188.914 13.7433C188.638 13.4754 188.274 13.262 187.838 13.1122C187.393 12.9578 186.858 12.8761 186.254 12.8761C185.918 12.8761 185.586 12.8943 185.269 12.926C184.937 12.9578 184.615 12.9942 184.306 13.0305L183.407 13.1394C182.762 13.2166 182.167 13.2121 181.754 13.1167C181.514 13.0623 181.314 12.976 181.155 12.8625C180.982 12.7399 180.855 12.5901 180.778 12.413C180.705 12.2495 180.669 12.0724 180.669 11.8772C180.669 11.6184 180.737 11.3687 180.869 11.1326C181.001 10.901 181.2 10.6967 181.473 10.5242C181.727 10.3653 182.054 10.2336 182.44 10.1428C182.817 10.052 183.28 10.0066 183.816 10.0066C184.569 10.0066 185.314 10.0928 186.027 10.2654C186.612 10.4061 187.207 10.5923 187.798 10.8193L188.401 9.15297C188.17 9.06216 187.916 8.97589 187.639 8.89416C187.23 8.77157 186.794 8.6626 186.345 8.57179C185.9 8.48099 185.437 8.4038 184.973 8.34931C183.643 8.18586 182.476 8.26305 181.5 8.56725C180.869 8.76249 180.329 9.03946 179.888 9.38907C179.457 9.7296 179.116 10.1428 178.885 10.6059C178.653 11.069 178.535 11.5866 178.535 12.136C178.535 12.5764 178.603 12.9896 178.735 13.3665C178.862 13.7252 179.066 14.043 179.348 14.3109C179.634 14.5788 180.011 14.7967 180.478 14.9556C180.955 15.1191 181.545 15.2008 182.24 15.2008C182.562 15.2008 182.885 15.1826 183.198 15.1508C183.525 15.1191 183.838 15.0827 184.138 15.0464L185.005 14.9374C185.296 14.9011 185.568 14.883 185.822 14.883C186.435 14.883 186.876 15.0146 187.171 15.2825C187.471 15.5549 187.625 15.8955 187.625 16.2859C187.625 16.5448 187.557 16.799 187.425 17.0397C187.289 17.2894 187.067 17.5073 186.758 17.6889C186.472 17.8615 186.108 17.9931 185.654 18.0976C185.214 18.1975 184.66 18.2474 184.011 18.2474C183.062 18.2474 182.117 18.1248 181.209 17.8887C180.428 17.6844 179.693 17.3756 179.021 16.9761L178.185 18.597C178.472 18.7514 178.78 18.9012 179.107 19.0374C179.552 19.2281 180.033 19.3961 180.546 19.5369C181.055 19.6776 181.6 19.7911 182.163 19.8729C182.726 19.9546 183.316 19.9955 183.92 19.9955C184.896 19.9955 185.768 19.8865 186.504 19.6731C187.23 19.4642 187.843 19.1691 188.324 18.8013C188.796 18.4381 189.155 18.0068 189.391 17.5209L189.396 17.5255Z" fill="#0A0A0A"/>
</g>
<defs>
<clipPath id="clip0_58_3944">
<rect width="117.059" height="20" fill="white"/>
</clipPath>
<clipPath id="clip1_58_3944">
<rect width="65.4228" height="16.3636" fill="white" transform="translate(124.332 3.63635)"/>
</clipPath>
</defs>
</svg>
