<svg width="42" height="46" viewBox="0 0 42 46" fill="none" xmlns="http://www.w3.org/2000/svg">
<g clip-path="url(#clip0_670_1949)">
<path d="M40.6386 45.5C41.2961 45.5 41.8358 44.9558 41.8358 44.274V43.9737C41.8358 34.2907 30.8185 23 21.3708 23C30.8185 23 41.8358 11.7093 41.8358 2.02627H41.8296V1.72602C41.8296 1.05046 41.3023 0.5 40.6323 0.5L1.26586 0.5C0.595894 0.5 0.0686035 1.0442 0.0686035 1.72602L0.0686035 2.61426C0.819216 6.1985 1.34651 13.98 1.34651 23C1.34651 32.02 0.82542 39.7952 0.0686035 43.3857L0.0686035 44.1989C0.0686035 44.8745 0.595894 45.4249 1.26586 45.4249L40.6448 45.5H40.6386Z" fill="url(#paint0_linear_670_1949)"/>
<path d="M18.427 8.66363C18.1001 7.90337 17.627 7.24323 17.0324 6.70198C16.4472 6.16072 15.7344 5.73836 14.9126 5.44114C14.1002 5.15017 13.1974 5 12.2294 5C11.2613 5 10.3492 5.14705 9.53677 5.44114C8.72121 5.73836 8.00838 6.16072 7.41383 6.70823C6.8224 7.24949 6.35547 7.90963 6.02863 8.66989C5.70178 9.42702 5.53369 10.2686 5.53369 11.1728C5.53369 12.077 5.70178 12.9311 6.02863 13.6945C6.35547 14.461 6.8224 15.1211 7.41383 15.6749C8.00526 16.2224 8.72121 16.6573 9.53366 16.9608C10.3492 17.258 11.255 17.4113 12.2294 17.4113C13.2037 17.4113 14.1033 17.2642 14.9157 16.967C15.7375 16.6604 16.4534 16.2287 17.0386 15.678C17.6332 15.1274 18.1001 14.4641 18.427 13.6976C18.7538 12.9311 18.9219 12.0832 18.9219 11.1759C18.9219 10.2686 18.7538 9.43327 18.427 8.67302H18.4238L18.427 8.66363Z" fill="white"/>
<path d="M16.9456 9.77601C16.7604 9.3452 16.4923 8.97111 16.1554 8.6644C15.8237 8.35769 15.4198 8.11835 14.9541 7.94993C14.4937 7.78505 13.9822 7.69995 13.4336 7.69995C12.885 7.69995 12.3682 7.78328 11.9078 7.94993C11.4457 8.11835 11.0417 8.35769 10.7048 8.66795C10.3697 8.97466 10.1051 9.34874 9.91987 9.77955C9.73466 10.2086 9.6394 10.6855 9.6394 11.1979C9.6394 11.7102 9.73466 12.1942 9.91987 12.6268C10.1051 13.0612 10.3697 13.4353 10.7048 13.7491C11.04 14.0593 11.4457 14.3057 11.9061 14.4777C12.3682 14.6461 12.8815 14.733 13.4336 14.733C13.9857 14.733 14.4955 14.6497 14.9559 14.4813C15.4216 14.3075 15.8273 14.0629 16.1589 13.7508C16.4958 13.4388 16.7604 13.0629 16.9456 12.6286C17.1308 12.1942 17.2261 11.7138 17.2261 11.1996C17.2261 10.6855 17.1308 10.2121 16.9456 9.78133H16.9438L16.9456 9.77601Z" fill="#222222"/>
</g>
<defs>
<linearGradient id="paint0_linear_670_1949" x1="27.1151" y1="0.793994" x2="14.7981" y2="46.099" gradientUnits="userSpaceOnUse">
<stop stop-color="#CD65FD"/>
<stop offset="0.31" stop-color="#A53EF5"/>
<stop offset="1" stop-color="#6B0AE5"/>
</linearGradient>
<clipPath id="clip0_670_1949">
<rect width="41.8605" height="45" fill="white" transform="translate(0 0.5)"/>
</clipPath>
</defs>
</svg>
