<svg width="100" height="100" viewBox="0 0 100 100" fill="none" xmlns="http://www.w3.org/2000/svg">
<circle cx="50" cy="50" r="50" fill="#D4F2E5"/>
<circle cx="50" cy="49.6001" r="35" fill="#42B074"/>
<path d="M64.9591 41.6031L46.2091 60.3531C46.0458 60.517 45.8517 60.647 45.6381 60.7358C45.4244 60.8245 45.1953 60.8702 44.964 60.8702C44.7326 60.8702 44.5036 60.8245 44.2899 60.7358C44.0762 60.647 43.8822 60.517 43.7189 60.3531L35.5157 52.15C35.3522 51.9865 35.2225 51.7924 35.134 51.5788C35.0455 51.3651 35 51.1361 35 50.9049C35 50.6737 35.0455 50.4447 35.134 50.2311C35.2225 50.0174 35.3522 49.8233 35.5157 49.6598C35.6793 49.4963 35.8734 49.3666 36.087 49.2781C36.3006 49.1896 36.5296 49.144 36.7609 49.144C36.9921 49.144 37.2211 49.1896 37.4347 49.2781C37.6484 49.3666 37.8425 49.4963 38.006 49.6598L44.9655 56.6193L62.4718 39.1158C62.802 38.7856 63.2499 38.6001 63.7169 38.6001C64.1839 38.6001 64.6318 38.7856 64.962 39.1158C65.2923 39.4461 65.4778 39.8939 65.4778 40.361C65.4778 40.828 65.2923 41.2759 64.962 41.6061L64.9591 41.6031Z" fill="white"/>
</svg>
